<svg xmlns="http://www.w3.org/2000/svg" xmlns:xlink="http://www.w3.org/1999/xlink" width="500" zoomAndPan="magnify" viewBox="0 0 375 374.999991" height="500" preserveAspectRatio="xMidYMid meet" version="1.0"><defs><clipPath id="b0cb740f2e"><path d="M 9.332031 234 L 168 234 L 168 351 L 9.332031 351 Z M 9.332031 234 " clip-rule="nonzero"/></clipPath><clipPath id="1257add31c"><path d="M 199 22 L 365.582031 22 L 365.582031 142 L 199 142 Z M 199 22 " clip-rule="nonzero"/></clipPath><clipPath id="08aa2f6f2c"><path d="M 69.8125 136.746094 L 179 136.746094 L 179 237.996094 L 69.8125 237.996094 Z M 69.8125 136.746094 " clip-rule="nonzero"/></clipPath><clipPath id="1afe8c5755"><path d="M 185 136.746094 L 218.3125 136.746094 L 218.3125 151 L 185 151 Z M 185 136.746094 " clip-rule="nonzero"/></clipPath><clipPath id="399d85df0f"><path d="M 229 136.746094 L 264 136.746094 L 264 151 L 229 151 Z M 229 136.746094 " clip-rule="nonzero"/></clipPath><clipPath id="3c0aad0bd5"><path d="M 226.648438 143 L 305.398438 143 L 305.398438 237.996094 L 226.648438 237.996094 Z M 226.648438 143 " clip-rule="nonzero"/></clipPath></defs><g clip-path="url(#b0cb740f2e)"><path fill="#ff66cc" d="M 82.144531 317.34375 C 78.574219 316.496094 75.488281 314.664062 72.382812 312.625 C 71.726562 312.199219 71.058594 311.757812 70.367188 311.308594 C 69.738281 310.859375 69.097656 310.386719 68.425781 309.910156 C 67.121094 308.992188 65.78125 308.121094 64.402344 307.292969 C 63.019531 306.46875 61.59375 305.683594 60.117188 304.949219 C 58.691406 304.171875 57.289062 303.375 55.792969 302.667969 C 54.367188 301.984375 52.839844 301.4375 51.308594 300.902344 C 47.183594 299.570312 43.371094 297.878906 39.355469 296.132812 C 39.058594 296.007812 38.757812 295.96875 38.539062 296.253906 C 38.222656 296.648438 38.351562 297.054688 38.667969 297.351562 C 39.199219 297.859375 39.792969 298.292969 40.355469 298.765625 C 42.515625 300.609375 44.566406 302.363281 46.304688 303.851562 C 47.886719 305.265625 49.527344 306.574219 51.195312 307.785156 C 52.863281 309.003906 54.550781 310.132812 56.453125 311.015625 C 60.1875 312.839844 63.902344 314.371094 67.835938 315.332031 C 71.128906 316.046875 74.363281 316.628906 77.449219 317.429688 C 79.722656 318.105469 82.082031 318.863281 84.40625 319.472656 C 85.609375 319.789062 86.828125 320.109375 88.003906 320.421875 C 89.585938 320.8125 91.011719 321.527344 92.351562 322.375 C 95.117188 324.128906 97.816406 326.023438 100.589844 327.875 C 101.214844 328.3125 101.851562 328.730469 102.535156 329.058594 C 104.800781 330.050781 106.976562 331.210938 109.0625 332.609375 C 109.703125 332.964844 110.359375 333.308594 110.988281 333.683594 C 111.335938 333.898438 111.445312 334.277344 111.28125 334.667969 C 111.109375 335.066406 110.746094 335.1875 110.359375 335.125 C 109.902344 335.054688 109.453125 334.917969 109 334.8125 C 105.863281 334.347656 102.664062 334.199219 99.371094 334.203125 C 96.179688 334.011719 92.933594 333.882812 89.566406 333.828125 C 88.175781 333.796875 86.855469 333.515625 85.566406 333.109375 C 84.285156 332.695312 83.128906 332.011719 81.910156 331.441406 C 78.488281 329.695312 74.855469 328.195312 71.164062 327.007812 C 70.082031 326.652344 68.96875 326.292969 67.835938 326.144531 C 65.546875 325.839844 63.222656 325.617188 60.859375 325.394531 C 59.683594 325.28125 58.492188 325.167969 57.300781 325.054688 L 53.839844 324.554688 C 53.417969 324.492188 52.992188 324.476562 52.570312 324.484375 C 52.171875 324.492188 51.59375 324.261719 51.453125 324.742188 C 51.246094 325.425781 51.941406 325.589844 52.371094 325.882812 C 54.628906 327.511719 57.175781 328.808594 59.710938 330.035156 C 62.207031 331.234375 64.769531 332.464844 67.230469 333.640625 C 69.375 334.632812 71.746094 334.8125 73.972656 335.222656 C 75.902344 335.558594 77.820312 335.78125 79.707031 335.972656 C 80.542969 336.058594 81.40625 336.144531 82.203125 336.03125 C 85.203125 335.558594 88.308594 335.394531 91.261719 335.195312 C 91.875 335.144531 92.5 335.082031 93.097656 335.160156 C 94.730469 335.34375 96.414062 335.53125 98.050781 335.714844 C 99.785156 335.785156 101.480469 335.859375 103.0625 335.929688 C 106.375 336.085938 109.511719 336.640625 112.71875 337.410156 C 114.835938 337.847656 116.980469 338.140625 119.097656 338.429688 C 120.566406 338.628906 121.90625 339.144531 123.222656 339.847656 C 126.949219 341.644531 130.84375 343.085938 134.78125 344.710938 C 136.75 345.578125 138.765625 346.140625 140.796875 346.699219 C 142.871094 347.269531 144.925781 347.832031 146.960938 348.386719 C 151.566406 349.796875 156.261719 350.011719 161.003906 350.566406 C 162.992188 350.78125 165.015625 350.816406 167.132812 350.417969 C 166.726562 349.753906 166.210938 349.953125 165.8125 349.847656 C 165.421875 349.742188 165.015625 349.71875 164.609375 349.664062 C 162.007812 349.292969 159.433594 348.929688 156.839844 348.566406 C 154.273438 348.152344 151.738281 347.929688 149.207031 347.152344 C 146.785156 346.511719 144.390625 345.828125 142.03125 345.136719 C 139.671875 344.433594 137.328125 343.839844 135.046875 342.820312 C 133.308594 342.121094 131.574219 341.445312 129.835938 340.847656 C 127.800781 340.121094 125.945312 339.207031 124.363281 337.726562 C 121.511719 334.851562 118.839844 332.015625 116.566406 328.980469 C 115.339844 327.464844 113.851562 326.003906 112.675781 324.335938 C 111.8125 323.117188 111.207031 321.777344 110.539062 320.5 C 108.828125 317.222656 108.65625 313.453125 107.878906 309.816406 C 107.023438 306.0625 105.914062 302.875 104.550781 300.027344 C 103.296875 296.960938 101.722656 294.367188 99.664062 292.199219 C 99.023438 291.417969 98.429688 290.554688 97.816406 289.75 C 97.6875 289.578125 97.5625 289.363281 97.28125 289.527344 C 96.828125 289.800781 96.90625 290.167969 96.96875 290.476562 C 97.410156 292.4375 97.824219 294.539062 98.550781 296.320312 C 99.214844 298.121094 99.5625 300.125 99.8125 302.269531 C 100.320312 307.636719 102.234375 312.054688 105.144531 316.453125 C 106.339844 318.371094 107.644531 320.066406 108.941406 321.917969 C 110.238281 323.757812 111.558594 325.652344 112.988281 327.527344 C 113.160156 327.75 113.289062 328.027344 113.496094 328.210938 C 115.25 329.816406 116.558594 331.625 117.976562 333.585938 C 118.789062 334.140625 119.4375 334.832031 119.808594 335.964844 C 118.8125 335.75 118.070312 335.367188 117.386719 334.882812 C 113.304688 332.992188 109.496094 330.535156 105.605469 328.417969 C 104.628906 327.882812 103.660156 327.355469 102.699219 326.828125 C 101.757812 326.238281 100.851562 325.589844 99.933594 324.984375 C 98.09375 323.75 96.277344 322.53125 94.445312 321.304688 C 92.714844 320.257812 91.132812 318.960938 89.5 317.757812 C 87.640625 316.351562 86.207031 314.527344 84.988281 312.640625 C 83.664062 310.417969 82.359375 308.1875 80.636719 306.375 C 79.664062 305.335938 78.894531 304.195312 78.28125 302.984375 C 77.699219 301.734375 77.363281 300.316406 77.105469 298.914062 C 76.609375 296.011719 75.765625 293.332031 75.402344 290.570312 C 75.117188 287.054688 73.730469 284.203125 71.535156 281.867188 C 69.894531 280.121094 68.582031 278.070312 66.679688 276.484375 C 64.863281 274.941406 63.566406 272.957031 62.382812 270.898438 C 62.210938 270.621094 61.957031 270.386719 61.699219 270.171875 C 61.65625 270.136719 61.316406 270.308594 61.25 270.429688 C 61.121094 270.671875 61.007812 270.976562 61.042969 271.210938 C 61.199219 272.160156 61.285156 273.15625 61.636719 274.035156 C 62.796875 276.648438 63.429688 279.4375 63.972656 282.351562 C 64.558594 285.914062 66.246094 288.859375 68.035156 291.84375 C 68.867188 293.15625 69.660156 294.53125 70.628906 295.742188 C 71.632812 296.960938 72.617188 298.160156 73.601562 299.347656 C 75.097656 301.066406 76.292969 303.074219 77.683594 304.871094 C 79.058594 306.6875 80.371094 308.597656 81.691406 310.550781 C 82.300781 311.121094 82.628906 311.871094 83.03125 313.132812 C 82.058594 312.339844 81.449219 311.839844 80.828125 311.335938 L 76.699219 308.683594 C 75.320312 307.792969 73.898438 306.9375 72.644531 305.882812 L 64.828125 299.761719 C 64.277344 299.257812 63.722656 298.75 63.132812 298.300781 C 60.324219 296.121094 57.878906 293.589844 56.121094 290.617188 C 54.394531 287.609375 53.027344 284.410156 51.863281 281.175781 C 50.859375 277.734375 50.675781 274.140625 50.667969 270.671875 C 50.609375 268.660156 50.496094 266.636719 49.839844 264.761719 C 49.105469 262.441406 48.160156 260.257812 47.167969 258.085938 C 46.234375 255.882812 45.109375 253.78125 43.710938 251.765625 C 41.902344 249.292969 40.667969 246.503906 39.15625 243.839844 C 38.945312 243.445312 38.714844 243.046875 38.445312 242.683594 C 38.289062 242.472656 38.039062 242.328125 37.691406 242.472656 C 37.375 242.597656 37.210938 242.796875 37.183594 243.089844 C 37.011719 244.550781 36.863281 246.019531 37.019531 247.507812 C 37.199219 249 37.355469 250.515625 37.675781 251.976562 C 38.019531 253.433594 38.402344 254.886719 38.824219 256.324219 C 39.691406 259.203125 40.597656 262.105469 41.972656 264.796875 C 43.414062 267.707031 45.042969 270.535156 46.882812 273.214844 C 48.101562 274.988281 49.050781 276.84375 49.527344 279.015625 C 50.089844 281.917969 51.289062 284.574219 52.707031 287.148438 C 52.847656 287.363281 53.019531 287.566406 53.113281 287.804688 C 53.167969 287.9375 53.160156 288.175781 53.078125 288.273438 C 52.847656 288.53125 52.578125 288.410156 52.390625 288.230469 C 52.207031 288.054688 52.09375 287.8125 51.941406 287.597656 C 51.785156 287.488281 51.59375 287.40625 51.464844 287.277344 C 48.449219 284.320312 45.75 281.117188 42.964844 277.910156 C 40.070312 274.761719 37.726562 271.25 35.28125 267.71875 C 33.265625 264.914062 32.324219 261.605469 31.210938 258.414062 C 30.777344 257.082031 30.378906 255.734375 30 254.394531 C 29.6875 253.019531 29.371094 251.628906 29.066406 250.289062 C 28.304688 246.945312 26.757812 244.046875 24.542969 241.367188 C 23.023438 239.613281 21.777344 237.609375 20.40625 235.679688 C 20.179688 235.359375 19.996094 235.003906 19.746094 234.710938 C 19.472656 234.394531 19.097656 234.226562 18.667969 234.375 C 18.210938 234.53125 18.121094 234.910156 18.199219 235.316406 C 18.605469 237.347656 18.917969 239.421875 19.488281 241.421875 C 20.492188 245.265625 21.503906 249.121094 23.195312 252.746094 C 24.746094 256.304688 26.898438 259.566406 29.464844 262.445312 C 30.390625 263.488281 31.183594 264.605469 31.902344 265.769531 C 32.695312 266.964844 33.429688 268.070312 34.175781 269.203125 C 38.316406 275.632812 43.234375 281.488281 48.328125 287.039062 C 48.929688 287.667969 49.457031 288.359375 50.019531 289.023438 C 50.773438 289.320312 51.152344 289.992188 51.609375 290.574219 C 51.6875 290.683594 51.679688 290.96875 51.585938 291.074219 C 51.480469 291.203125 51.238281 291.289062 51.074219 291.273438 C 50.398438 291.21875 49.753906 291.046875 49.234375 290.582031 C 46.417969 289.078125 43.097656 288.09375 40.554688 286.058594 C 38.714844 284.660156 37.097656 283.0625 35.964844 280.976562 C 34.882812 279.128906 33.839844 277.371094 32.765625 275.53125 C 30.199219 271.167969 26.171875 268.253906 22.523438 264.90625 C 22.375 264.769531 22.195312 264.65625 22.019531 264.570312 C 20.015625 263.636719 18.164062 262.433594 16.359375 261.101562 C 14.558594 259.765625 12.980469 258.25 11.285156 256.773438 C 10.980469 256.503906 10.601562 256.273438 10.222656 256.167969 C 9.988281 256.105469 9.660156 256.261719 9.441406 256.410156 C 9.339844 256.480469 9.3125 256.839844 9.390625 256.980469 C 9.988281 258.105469 10.566406 259.238281 11.257812 260.292969 C 12.3125 261.992188 13.59375 263.601562 14.914062 265.105469 C 16.972656 267.394531 18.804688 269.800781 20.585938 272.238281 C 22.917969 275.167969 25.746094 277.460938 28.398438 279.863281 C 29.222656 280.625 30.136719 281.28125 31.113281 281.894531 C 31.71875 282.289062 32.34375 282.820312 33 282.898438 C 34.875 283.128906 36.152344 284.167969 37.355469 285.4375 C 37.976562 286.09375 38.679688 286.699219 39.4375 287.167969 C 43.132812 289.492188 47.160156 291.574219 51.292969 292.722656 C 53.816406 293.449219 56.089844 294.589844 58.058594 296.460938 C 60.082031 298.363281 62.046875 300.28125 64.207031 302 C 66.417969 303.679688 68.632812 305.371094 70.773438 306.996094 C 72.390625 308.355469 74.199219 309.484375 75.953125 310.664062 C 77.699219 311.855469 79.410156 313.082031 81.046875 314.40625 C 81.753906 315.011719 82.460938 315.632812 83.230469 316.160156 C 84.097656 316.710938 85.109375 317.074219 85.738281 318.070312 C 85.410156 318.148438 85.21875 318.261719 85.074219 318.21875 C 84.054688 317.898438 83.109375 317.621094 82.144531 317.34375 Z M 116.238281 336.144531 C 114.402344 336.234375 113.066406 336.066406 111.871094 335.4375 C 111.648438 335.300781 111.4375 335.074219 111.542969 334.730469 C 111.65625 334.390625 111.929688 334.296875 112.191406 334.433594 C 113.394531 334.988281 114.621094 335.460938 116.238281 336.144531 Z M 116.238281 336.144531 " fill-opacity="1" fill-rule="nonzero"/></g><g clip-path="url(#1257add31c)"><path fill="#ff66cc" d="M 288.296875 57.027344 C 291.988281 57.847656 295.230469 59.660156 298.496094 61.667969 C 301.382812 63.355469 303.984375 65.324219 306.921875 66.90625 C 309.835938 68.515625 312.921875 69.929688 315.949219 71.375 C 317.433594 72.039062 319.007812 72.550781 320.589844 73.050781 C 322.640625 73.726562 324.828125 74.332031 326.851562 75.117188 L 332.996094 77.539062 C 333.304688 77.667969 333.609375 77.6875 333.816406 77.390625 C 334.109375 76.984375 333.957031 76.570312 333.617188 76.269531 C 333.046875 75.773438 332.417969 75.34375 331.828125 74.878906 C 330.75 74.027344 329.691406 73.175781 328.683594 72.378906 C 327.601562 71.574219 326.511719 70.769531 325.46875 69.898438 C 318.894531 64.207031 310.988281 60.707031 302.992188 58.832031 C 299.613281 58.175781 296.292969 57.640625 293.109375 56.871094 C 290.757812 56.222656 288.3125 55.480469 285.902344 54.875 C 284.65625 54.5625 283.394531 54.25 282.175781 53.949219 C 280.542969 53.550781 279.035156 52.882812 277.652344 51.984375 C 274.742188 50.214844 271.898438 48.3125 269 46.453125 C 268.328125 46.046875 267.6875 45.554688 266.980469 45.210938 C 264.625 44.207031 262.351562 43.039062 260.175781 41.628906 C 259.507812 41.265625 258.828125 40.921875 258.171875 40.539062 C 257.808594 40.324219 257.6875 39.9375 257.859375 39.546875 C 258.03125 39.148438 258.410156 39.027344 258.800781 39.089844 C 259.269531 39.160156 259.742188 39.296875 260.210938 39.410156 C 263.453125 39.894531 266.761719 40.03125 270.117188 40.058594 C 273.375 40.308594 276.71875 40.378906 280.152344 40.429688 C 281.570312 40.453125 282.925781 40.730469 284.25 41.121094 C 285.539062 41.570312 286.757812 42.210938 288.011719 42.78125 C 291.554688 44.5 295.289062 45.953125 299.09375 47.085938 C 300.207031 47.421875 301.355469 47.765625 302.5 47.890625 C 304.832031 48.148438 307.191406 48.328125 309.585938 48.492188 C 310.78125 48.570312 311.988281 48.648438 313.207031 48.726562 L 316.726562 49.132812 C 317.152344 49.183594 317.589844 49.1875 318.007812 49.167969 C 318.40625 49.148438 319 49.367188 319.128906 48.875 C 319.304688 48.175781 318.59375 48.035156 318.144531 47.75 C 315.785156 46.160156 313.132812 44.964844 310.539062 43.773438 C 307.976562 42.625 305.332031 41.449219 302.808594 40.316406 C 300.597656 39.367188 298.203125 39.226562 295.9375 38.855469 C 293.972656 38.550781 292.019531 38.355469 290.09375 38.1875 C 289.238281 38.105469 288.371094 38.035156 287.558594 38.164062 C 284.550781 38.632812 281.371094 38.839844 278.363281 39.054688 C 277.738281 39.105469 277.101562 39.175781 276.488281 39.097656 C 274.8125 38.917969 273.089844 38.734375 271.402344 38.554688 C 269.71875 38.386719 267.957031 38.429688 266.277344 38.292969 C 262.878906 38.101562 259.605469 37.628906 256.335938 36.710938 C 254.148438 36.261719 251.929688 35.957031 249.734375 35.648438 C 248.210938 35.433594 246.828125 34.921875 245.460938 34.203125 C 237.714844 30.632812 229.523438 27.324219 220.902344 25.34375 C 216.140625 23.902344 211.246094 23.597656 206.3125 23.078125 C 204.246094 22.863281 202.136719 22.820312 199.933594 23.226562 C 200.355469 23.890625 200.890625 23.691406 201.304688 23.796875 C 201.710938 23.902344 202.136719 23.925781 202.558594 23.980469 C 205.265625 24.351562 207.9375 24.714844 210.632812 25.085938 C 213.296875 25.457031 215.941406 25.777344 218.558594 26.5625 C 221.074219 27.21875 223.546875 27.910156 225.996094 28.613281 L 229.644531 29.675781 C 230.851562 30.074219 232.03125 30.601562 233.222656 31.050781 C 235.027344 31.757812 236.816406 32.457031 238.617188 33.070312 C 240.71875 33.84375 242.671875 34.664062 244.277344 36.3125 C 247.242188 39.203125 250.035156 42.070312 252.4375 45.128906 C 253.734375 46.644531 255.257812 48.253906 256.535156 49.878906 C 257.453125 51.105469 258.117188 52.453125 258.84375 53.75 C 259.777344 55.402344 260.304688 57.199219 260.738281 59.003906 C 261.160156 60.839844 261.429688 62.808594 261.9375 64.582031 C 262.976562 68.394531 264.308594 71.609375 265.878906 74.574219 C 267.367188 77.703125 269.191406 80.375 271.507812 82.628906 C 272.242188 83.441406 272.910156 84.324219 273.609375 85.15625 C 273.753906 85.335938 273.910156 85.554688 274.179688 85.394531 C 274.644531 85.121094 274.53125 84.738281 274.4375 84.421875 C 273.84375 82.398438 273.269531 80.253906 272.398438 78.421875 C 271.59375 76.578125 271.109375 74.515625 270.730469 72.335938 C 269.902344 66.882812 267.75 62.339844 264.566406 57.917969 C 263.925781 57.015625 263.253906 56.066406 262.554688 55.082031 C 261.878906 54.191406 261.179688 53.28125 260.476562 52.351562 C 259.085938 50.492188 257.667969 48.582031 256.148438 46.695312 C 255.964844 46.46875 255.828125 46.1875 255.613281 46.011719 C 253.789062 44.320312 252.414062 42.492188 250.925781 40.523438 C 250.078125 39.960938 249.402344 39.261719 249.007812 38.128906 C 250.042969 38.351562 250.8125 38.742188 251.53125 39.226562 C 259.855469 43.503906 267.914062 47.984375 275.503906 53.058594 C 277.324219 54.113281 278.984375 55.460938 280.722656 56.644531 C 282.695312 58.054688 284.242188 59.886719 285.589844 61.804688 C 287.066406 64.046875 288.519531 66.300781 290.386719 68.117188 C 291.433594 69.164062 292.296875 70.320312 292.988281 71.546875 C 293.691406 72.769531 294.097656 74.238281 294.457031 75.65625 C 295.148438 78.609375 296.171875 81.34375 296.730469 84.1875 C 297.3125 87.722656 298.875 90.679688 301.289062 93.03125 C 303.15625 94.726562 304.5625 96.851562 306.605469 98.421875 C 308.507812 100.003906 310.054688 101.933594 311.359375 104.023438 C 311.550781 104.308594 311.824219 104.542969 312.09375 104.75 C 312.136719 104.785156 312.480469 104.597656 312.535156 104.46875 C 312.648438 104.214844 312.75 103.902344 312.691406 103.65625 C 312.480469 102.6875 312.328125 101.65625 311.914062 100.773438 C 310.484375 98.179688 309.71875 95.277344 308.957031 92.304688 C 308.730469 91.414062 308.460938 90.539062 308.152344 89.683594 C 307.796875 88.871094 307.40625 88.070312 306.984375 87.28125 C 306.144531 85.707031 305.1875 84.179688 304.167969 82.683594 C 302.414062 79.914062 300.179688 77.566406 297.996094 75.144531 C 296.359375 73.417969 295.03125 71.367188 293.480469 69.59375 C 291.96875 67.761719 290.519531 65.828125 289.074219 63.863281 C 288.410156 63.285156 288.046875 62.539062 287.570312 61.261719 C 288.605469 62.054688 289.261719 62.550781 289.921875 63.058594 C 292.78125 64.855469 295.824219 66.476562 298.597656 68.46875 L 306.925781 74.539062 C 307.546875 75.007812 308.117188 75.535156 308.757812 75.976562 C 311.757812 78.125 314.332031 80.703125 316.390625 83.625 C 318.328125 86.652344 319.898438 89.910156 321.300781 93.1875 C 322.605469 96.652344 322.953125 100.378906 323.195312 103.941406 C 323.382812 106.011719 323.695312 108.035156 324.414062 109.972656 C 325.304688 112.332031 326.3125 114.589844 327.515625 116.75 C 328.554688 118.996094 329.78125 121.132812 331.273438 123.183594 C 333.21875 125.695312 334.601562 128.507812 336.175781 131.257812 C 336.402344 131.664062 336.644531 132.070312 336.929688 132.441406 C 337.09375 132.65625 337.34375 132.804688 337.699219 132.65625 C 338.011719 132.519531 338.164062 132.3125 338.191406 132.015625 C 338.3125 130.503906 338.417969 128.984375 338.207031 127.453125 C 337.863281 124.324219 336.964844 121.359375 335.980469 118.390625 C 335.492188 116.90625 334.957031 115.429688 334.386719 113.96875 C 333.808594 112.507812 333.046875 111.140625 332.332031 109.738281 C 331.550781 108.246094 330.671875 106.800781 329.769531 105.375 L 328.390625 103.253906 L 326.859375 101.226562 C 325.519531 99.433594 324.457031 97.558594 323.839844 95.335938 C 323.105469 92.355469 321.621094 89.738281 320.070312 87.101562 C 319.910156 86.882812 319.726562 86.683594 319.613281 86.441406 C 319.546875 86.304688 319.542969 86.0625 319.621094 85.957031 C 319.832031 85.683594 320.117188 85.804688 320.3125 85.984375 C 320.511719 86.164062 320.644531 86.40625 320.800781 86.617188 C 320.972656 86.726562 321.167969 86.804688 321.300781 86.9375 C 322.847656 88.464844 324.507812 89.917969 326.027344 91.484375 C 327.515625 93.082031 329.019531 94.6875 330.507812 96.289062 C 333.617188 99.445312 336.28125 102.960938 338.898438 106.566406 C 341.085938 109.410156 342.28125 112.789062 343.523438 116.09375 C 344.027344 117.46875 344.492188 118.851562 344.941406 120.242188 C 345.375 121.632812 345.675781 123.078125 346.066406 124.480469 C 346.53125 126.207031 347.144531 127.839844 347.960938 129.363281 C 348.367188 130.132812 348.839844 130.867188 349.351562 131.585938 C 349.816406 132.328125 350.34375 133.042969 350.933594 133.738281 C 352.496094 135.570312 353.792969 137.679688 355.21875 139.71875 C 355.453125 140.054688 355.644531 140.433594 355.910156 140.746094 C 356.1875 141.082031 356.570312 141.257812 357 141.117188 C 357.453125 140.960938 357.539062 140.558594 357.449219 140.132812 C 356.992188 137.996094 356.628906 135.8125 356 133.710938 C 354.925781 129.648438 353.683594 125.65625 351.867188 121.875 C 350.191406 118.152344 347.753906 114.855469 345.070312 111.890625 C 344.070312 110.835938 343.257812 109.664062 342.425781 108.496094 C 341.554688 107.355469 340.742188 106.175781 339.917969 105.019531 C 337.585938 101.785156 335.277344 98.578125 332.554688 95.691406 C 329.890625 92.761719 327.402344 89.761719 324.480469 87.109375 C 323.832031 86.484375 323.253906 85.785156 322.648438 85.121094 C 321.871094 84.835938 321.445312 84.160156 320.945312 83.566406 C 320.851562 83.460938 320.851562 83.167969 320.929688 83.054688 C 321.03125 82.925781 321.265625 82.828125 321.4375 82.839844 C 322.121094 82.882812 322.785156 83.039062 323.339844 83.503906 C 326.28125 84.964844 329.667969 85.882812 332.433594 87.859375 C 334.371094 89.242188 336.097656 90.84375 337.371094 92.953125 C 338.503906 94.820312 339.851562 96.558594 340.976562 98.449219 C 343.773438 102.917969 348.105469 105.769531 351.933594 109.210938 C 352.089844 109.34375 352.273438 109.464844 352.460938 109.550781 C 356.570312 111.441406 360.277344 114.40625 363.683594 117.570312 C 364.003906 117.847656 364.390625 118.089844 364.773438 118.203125 C 365.007812 118.273438 365.335938 118.109375 365.550781 117.941406 C 365.652344 117.863281 365.664062 117.492188 365.578125 117.335938 C 364.921875 116.152344 364.289062 114.953125 363.546875 113.84375 C 362.363281 112.082031 360.984375 110.421875 359.585938 108.867188 C 357.371094 106.523438 355.472656 103.992188 353.441406 101.546875 C 350.925781 98.570312 347.941406 96.261719 345.125 93.84375 C 344.269531 93.066406 343.203125 92.476562 342.21875 91.855469 C 341.582031 91.472656 340.914062 90.9375 340.25 90.878906 C 338.339844 90.703125 337 89.667969 335.703125 88.394531 C 335.042969 87.738281 334.292969 87.132812 333.503906 86.675781 C 329.527344 84.464844 325.40625 82.414062 321.136719 81.367188 C 318.550781 80.6875 316.09375 79.65625 314.019531 77.761719 C 311.835938 75.886719 309.769531 73.925781 307.410156 72.285156 C 305.074219 70.617188 302.722656 68.953125 300.449219 67.332031 C 298.730469 65.980469 296.785156 64.894531 294.945312 63.707031 C 293.101562 62.523438 291.292969 61.296875 289.546875 59.980469 C 288.789062 59.375 288.042969 58.761719 287.230469 58.226562 C 286.316406 57.675781 285.253906 57.320312 284.578125 56.316406 C 284.914062 56.230469 285.105469 56.117188 285.246094 56.160156 C 286.316406 56.480469 287.300781 56.75 288.296875 57.027344 Z M 252.714844 37.992188 C 254.601562 37.945312 256.015625 38.027344 257.210938 38.792969 C 257.445312 38.925781 257.667969 39.15625 257.554688 39.496094 C 257.441406 39.839844 257.160156 39.933594 256.890625 39.796875 C 255.6875 39.113281 254.390625 38.714844 252.714844 37.992188 Z M 252.714844 37.992188 " fill-opacity="1" fill-rule="nonzero"/></g><path fill="#ff66cc" d="M 143.605469 346.441406 C 146.671875 347.355469 149.605469 348.402344 152.878906 349.007812 C 153.070312 349.015625 153.226562 349.058594 153.371094 349.128906 C 155.6875 349.511719 157.808594 350.269531 160.167969 350.53125 C 160.394531 350.539062 160.609375 350.582031 160.816406 350.652344 C 162.570312 350.78125 164.246094 351.402344 166.019531 351.4375 L 166.226562 351.445312 L 166.398438 351.5 C 168.242188 351.621094 170.011719 352.136719 171.878906 352.164062 C 172.121094 352.164062 172.347656 352.183594 172.570312 352.242188 C 174.285156 352.265625 176.011719 352.683594 177.734375 352.628906 C 178.617188 352.597656 179.609375 352.8125 180.480469 352.71875 C 181.546875 352.710938 182.546875 352.8125 183.535156 352.914062 C 184.5 352.847656 185.609375 353.0625 186.53125 352.882812 C 188.277344 352.792969 190.027344 353.0625 191.78125 352.820312 L 193.007812 352.835938 C 195.222656 352.65625 197.40625 352.957031 199.628906 352.570312 L 199.855469 352.527344 L 200.054688 352.550781 C 202.257812 352.234375 204.4375 352.484375 206.648438 352.035156 C 206.867188 351.972656 207.082031 351.949219 207.289062 351.964844 C 210.011719 351.4375 212.699219 351.652344 215.429688 350.929688 C 218.09375 350.28125 220.746094 350.316406 223.402344 349.527344 L 224.835938 349.226562 C 226.695312 348.636719 228.683594 348.585938 230.53125 347.882812 L 230.734375 347.796875 L 230.90625 347.789062 C 232.503906 347.203125 234.242188 347.019531 235.816406 346.378906 L 235.753906 346.398438 C 237.527344 345.765625 239.394531 345.472656 241.132812 344.6875 C 241.339844 344.582031 241.554688 344.515625 241.761719 344.480469 C 243.550781 343.703125 245.539062 343.46875 247.269531 342.515625 L 247.207031 342.542969 C 248.917969 341.679688 250.863281 341.332031 252.558594 340.417969 L 252.765625 340.3125 L 252.941406 340.285156 C 254.773438 339.316406 256.792969 338.765625 258.609375 337.726562 L 258.816406 337.613281 L 258.984375 337.574219 C 260.847656 336.636719 262.769531 335.90625 264.566406 334.816406 L 264.773438 334.683594 L 264.992188 334.605469 C 267.101562 333.433594 269.285156 332.550781 271.308594 331.191406 C 271.457031 331.0625 271.628906 330.96875 271.808594 330.90625 C 273.554688 329.78125 275.484375 329.007812 277.128906 327.691406 C 277.585938 327.34375 278.050781 327.078125 278.507812 326.855469 C 279.882812 325.808594 281.550781 325.132812 282.839844 323.941406 C 282.960938 323.808594 283.101562 323.707031 283.265625 323.644531 C 284.921875 322.296875 286.816406 321.390625 288.433594 319.972656 L 289.714844 318.988281 C 291.277344 317.5625 293.1875 316.582031 294.675781 315.046875 L 294.605469 315.113281 C 295.367188 314.300781 296.316406 313.664062 297.128906 312.902344 C 297.433594 312.625 297.746094 312.347656 298.070312 312.070312 L 300.007812 310.523438 C 300.222656 310.296875 300.433594 310.082031 300.683594 309.890625 L 300.863281 309.589844 C 301.21875 309.269531 301.5625 308.933594 301.894531 308.589844 C 302.980469 307.765625 304.0625 306.773438 305.136719 305.648438 C 306.066406 304.695312 306.933594 303.84375 307.855469 303.011719 C 308.058594 302.789062 308.152344 302.65625 308.1875 302.5625 L 308.296875 302.457031 C 309.550781 301.109375 311.023438 300.027344 312.117188 298.457031 C 314.046875 295.933594 316.492188 294.046875 318.257812 291.34375 L 318.40625 291.109375 L 318.585938 290.9375 C 320.261719 288.84375 321.980469 286.777344 323.523438 284.5625 C 325.113281 282.378906 326.71875 280.199219 328.128906 277.863281 C 328.386719 277.371094 328.671875 276.964844 328.976562 276.628906 C 330.765625 273.734375 332.648438 271.089844 334.25 268.046875 C 334.515625 267.59375 334.800781 267.148438 335.050781 266.6875 C 336.003906 264.527344 337.371094 262.601562 338.285156 260.410156 C 338.503906 259.910156 338.726562 259.453125 338.984375 259.074219 C 339.695312 257.179688 340.8125 255.441406 341.484375 253.515625 C 341.535156 253.316406 341.613281 253.140625 341.726562 252.984375 C 342.402344 251.101562 343.359375 249.339844 343.957031 247.417969 C 344.019531 247.152344 344.113281 246.902344 344.25 246.675781 C 344.996094 244.480469 346.007812 242.398438 346.585938 240.125 C 346.617188 239.917969 346.679688 239.726562 346.78125 239.5625 C 347.335938 237.609375 348.226562 235.722656 348.5625 233.699219 L 348.605469 233.441406 L 348.695312 233.269531 C 349.03125 231.601562 349.792969 229.976562 350.027344 228.289062 C 350.035156 228.066406 350.078125 227.847656 350.171875 227.632812 C 350.492188 225.617188 351.269531 223.683594 351.546875 221.648438 L 351.574219 221.367188 L 351.667969 221.105469 C 351.875 219.417969 352.375 217.753906 352.558594 216.050781 L 352.859375 214.414062 C 353.042969 213.082031 353.363281 211.65625 353.394531 210.324219 C 353.386719 210.042969 353.421875 209.78125 353.5 209.523438 C 353.5625 207.890625 354.0625 206.195312 354.085938 204.558594 C 354.070312 204.285156 354.089844 204.03125 354.15625 203.789062 C 354.140625 202.125 354.5625 200.386719 354.492188 198.734375 L 354.476562 198.472656 L 354.53125 198.222656 C 354.574219 196.851562 354.8125 195.398438 354.683594 194.046875 C 354.632812 193.402344 354.667969 192.804688 354.753906 192.222656 C 354.695312 190.894531 354.898438 189.46875 354.796875 188.164062 C 354.753906 187.988281 354.753906 187.78125 354.804688 187.558594 C 354.652344 185.402344 354.953125 183.183594 354.660156 181.03125 C 354.613281 180.796875 354.605469 180.574219 354.640625 180.375 C 354.449219 178.652344 354.605469 176.828125 354.296875 175.109375 C 354.242188 174.824219 354.226562 174.546875 354.242188 174.277344 C 353.925781 172.195312 354.035156 170.078125 353.628906 167.996094 L 353.441406 166.308594 C 353.101562 164.511719 353.066406 162.601562 352.617188 160.828125 C 352.539062 160.628906 352.496094 160.40625 352.496094 160.15625 L 351.910156 156.957031 L 351.5625 155.289062 L 351.296875 153.671875 C 351.203125 153.429688 351.140625 153.160156 351.113281 152.851562 L 350.992188 152.566406 L 350.898438 152.125 C 350.742188 151.320312 350.597656 150.5 350.355469 149.71875 C 350.328125 149.667969 350.3125 149.632812 350.292969 149.582031 L 349.375 145.425781 C 348.746094 142.984375 348.019531 140.550781 347.277344 138.121094 C 346.964844 137.710938 346.828125 137.835938 346.886719 138.59375 C 346.984375 139.8125 346.816406 140.351562 346.628906 140.867188 L 346.628906 140.851562 L 346.628906 140.875 C 346.644531 141.308594 346.773438 141.828125 347.007812 142.414062 C 348.496094 147.628906 349.429688 152.769531 350.230469 157.964844 C 351.15625 163.886719 351.851562 169.851562 352.21875 175.800781 C 352.4375 179.234375 352.515625 182.664062 352.488281 186.070312 C 352.4375 189.476562 352.246094 192.871094 352.101562 196.246094 C 351.980469 197.542969 351.839844 198.863281 351.910156 200.054688 C 351.769531 201.328125 351.582031 202.589844 351.484375 203.867188 C 350.570312 211.589844 349.386719 219.238281 347.507812 226.664062 C 345.660156 234.019531 343.566406 241.273438 340.707031 248.171875 C 339.832031 250.503906 338.832031 252.769531 337.785156 255.007812 C 337.4375 255.734375 337.085938 256.46875 336.730469 257.203125 C 336.53125 257.6875 336.332031 258.164062 336.132812 258.640625 C 334.5625 261.589844 333.183594 264.628906 331.484375 267.476562 L 330.816406 268.625 L 330.628906 268.976562 C 328.878906 272.175781 327.039062 275.195312 325.105469 278.230469 C 323.601562 280.5625 321.921875 282.757812 320.339844 285.015625 C 318.691406 287.226562 316.945312 289.34375 315.28125 291.515625 C 314.296875 292.664062 313.292969 293.804688 312.351562 294.988281 C 310.613281 297.089844 308.679688 299.011719 306.855469 301.042969 C 306.351562 301.621094 305.695312 302.257812 305.132812 302.761719 C 304.183594 303.667969 303.234375 304.542969 302.308594 305.476562 C 301.488281 306.269531 300.664062 307.066406 299.84375 307.851562 C 296.09375 311.214844 292.253906 314.441406 288.253906 317.363281 C 285.753906 319.332031 283.058594 321.078125 280.507812 322.867188 C 273.488281 327.355469 266.296875 331.425781 258.914062 334.996094 C 256.105469 336.214844 253.347656 337.605469 250.546875 338.660156 C 247.171875 339.964844 243.792969 341.273438 240.378906 342.34375 C 237.925781 343.21875 235.441406 343.960938 232.9375 344.652344 L 229.210938 345.730469 L 225.449219 346.621094 L 225.425781 346.625 L 224.378906 346.855469 L 223.902344 346.988281 C 221.542969 347.601562 219.140625 348.003906 216.753906 348.445312 C 214.75 348.828125 212.707031 349.285156 210.738281 349.425781 C 209.007812 349.589844 207.296875 349.796875 205.585938 350.019531 C 203.875 350.203125 202.164062 350.316406 200.457031 350.453125 C 196.648438 350.824219 192.757812 350.886719 189.066406 350.730469 C 188.332031 350.882812 187.5 350.851562 186.636719 350.851562 C 182.710938 350.824219 178.789062 350.632812 174.925781 350.390625 C 170.351562 350.097656 165.847656 349.535156 161.414062 348.714844 C 160.039062 348.464844 158.679688 348.214844 157.324219 347.964844 L 156.46875 347.796875 C 155.5625 347.675781 154.660156 347.488281 153.761719 347.3125 L 151.460938 346.746094 C 151.402344 346.777344 151.300781 346.796875 151.175781 346.796875 L 150.953125 346.746094 L 147.410156 345.792969 L 146.277344 345.644531 L 145.785156 345.5 L 144.644531 345.257812 C 143.09375 344.84375 141.347656 344.273438 140.960938 344.695312 C 140.640625 345.117188 141.574219 345.722656 143.605469 346.441406 Z M 143.605469 346.441406 " fill-opacity="1" fill-rule="nonzero"/><path fill="#ff66cc" d="M 201.851562 23.046875 C 199 22.855469 196.25 22.421875 193.269531 22.394531 C 193.109375 22.414062 192.949219 22.40625 192.824219 22.359375 C 190.726562 22.414062 188.738281 21.84375 186.621094 22.109375 C 186.421875 22.144531 186.222656 22.152344 186.03125 22.113281 C 184.46875 22.308594 182.894531 21.992188 181.328125 22.234375 L 181.140625 22.265625 L 180.976562 22.234375 C 179.332031 22.371094 177.699219 22.277344 176.046875 22.527344 C 175.832031 22.570312 175.625 22.585938 175.425781 22.5625 C 173.914062 22.828125 172.320312 22.628906 170.808594 22.96875 C 170.03125 23.164062 169.132812 23.121094 168.378906 23.339844 C 167.4375 23.519531 166.539062 23.574219 165.648438 23.613281 C 164.816406 23.820312 163.789062 23.746094 163.011719 24.046875 C 161.492188 24.453125 159.898438 24.394531 158.386719 24.867188 L 157.304688 25.015625 C 155.363281 25.449219 153.417969 25.578125 151.503906 26.199219 L 151.308594 26.269531 L 151.132812 26.277344 C 149.230469 26.863281 147.261719 26.898438 145.378906 27.636719 C 145.195312 27.722656 145.011719 27.773438 144.824219 27.789062 C 142.492188 28.628906 140.078125 28.769531 137.761719 29.777344 C 135.496094 30.703125 133.144531 31.039062 130.878906 32.035156 L 129.652344 32.492188 C 128.085938 33.261719 126.339844 33.582031 124.785156 34.410156 L 124.613281 34.5 L 124.464844 34.523438 C 123.109375 35.207031 121.605469 35.613281 120.292969 36.398438 L 120.34375 36.367188 C 118.890625 37.230469 117.1875 37.539062 115.761719 38.484375 C 115.589844 38.605469 115.421875 38.699219 115.234375 38.75 C 113.753906 39.683594 112.042969 40.144531 110.574219 41.128906 L 110.632812 41.101562 C 109.175781 42 107.53125 42.589844 106.140625 43.617188 L 105.96875 43.738281 L 105.8125 43.78125 C 104.28125 44.828125 102.476562 45.414062 101.039062 46.617188 L 100.875 46.75 L 100.726562 46.800781 C 99.226562 47.914062 97.511719 48.632812 96.027344 49.789062 L 95.855469 49.929688 L 95.664062 50.015625 C 93.984375 51.371094 92.082031 52.296875 90.398438 53.691406 C 90.277344 53.820312 90.132812 53.921875 89.976562 53.992188 C 88.546875 55.175781 86.933594 56.082031 85.566406 57.378906 C 85.1875 57.734375 84.804688 58.003906 84.40625 58.234375 C 83.265625 59.273438 81.875 60.066406 80.828125 61.234375 C 80.726562 61.367188 80.613281 61.46875 80.472656 61.53125 C 79.125 62.878906 77.492188 63.828125 76.1875 65.246094 L 75.132812 66.230469 C 73.863281 67.632812 72.253906 68.671875 71.027344 70.132812 L 71.085938 70.070312 C 70.480469 70.863281 69.679688 71.496094 69.027344 72.25 L 68.261719 73.078125 L 66.667969 74.609375 C 66.496094 74.832031 66.304688 75.03125 66.097656 75.207031 L 65.960938 75.488281 C 65.65625 75.785156 65.371094 76.105469 65.105469 76.441406 C 64.199219 77.261719 63.316406 78.230469 62.460938 79.328125 C 61.742188 80.28125 60.949219 81.03125 60.175781 81.820312 C 60.003906 82.035156 59.9375 82.164062 59.925781 82.257812 L 59.839844 82.363281 C 58.820312 83.660156 57.628906 84.765625 56.738281 86.21875 C 55.058594 88.5 53.21875 90.503906 51.695312 92.941406 L 51.574219 93.160156 L 51.414062 93.316406 C 48.691406 97.257812 45.976562 101.257812 43.65625 105.539062 C 43.449219 105.988281 43.214844 106.367188 42.941406 106.671875 C 41.515625 109.359375 39.949219 111.804688 38.644531 114.589844 C 38.417969 115.003906 38.203125 115.417969 38.003906 115.84375 C 37.253906 117.820312 36.085938 119.578125 35.386719 121.589844 C 35.222656 122.050781 35.015625 122.457031 34.796875 122.800781 C 34.253906 124.53125 33.300781 126.121094 32.808594 127.875 C 32.78125 128.058594 32.714844 128.222656 32.609375 128.359375 C 32.039062 130.046875 31.21875 131.652344 30.796875 133.40625 C 30.753906 133.648438 30.683594 133.867188 30.570312 134.082031 C 30.070312 136.097656 28.996094 137.914062 28.660156 140.003906 C 28.644531 140.195312 28.597656 140.367188 28.511719 140.515625 C 28.148438 142.296875 27.320312 143.996094 27.027344 145.796875 L 27 146.027344 L 26.921875 146.175781 C 26.6875 147.679688 26.109375 149.160156 25.917969 150.679688 C 25.917969 150.878906 25.875 151.070312 25.789062 151.265625 C 25.480469 153.058594 24.796875 154.800781 24.699219 156.644531 L 24.683594 156.894531 L 24.605469 157.128906 C 24.441406 158.640625 23.964844 160.121094 23.8125 161.648438 C 23.714844 162.132812 23.65625 162.632812 23.59375 163.121094 C 23.523438 164.328125 23.207031 165.597656 23.195312 166.792969 C 23.203125 167.035156 23.171875 167.277344 23.101562 167.503906 C 23.066406 168.964844 22.554688 170.476562 22.660156 171.953125 C 22.679688 172.195312 22.660156 172.421875 22.601562 172.644531 C 22.632812 174.125 22.226562 175.6875 22.308594 177.164062 L 22.324219 177.398438 L 22.273438 177.617188 C 22.230469 178.835938 22.074219 180.140625 22.175781 181.351562 C 22.226562 181.921875 22.195312 182.464844 22.109375 182.984375 C 22.167969 184.167969 21.976562 185.445312 22.082031 186.613281 C 22.125 186.777344 22.125 186.953125 22.082031 187.152344 C 22.21875 189.085938 21.910156 191.066406 22.183594 192.992188 C 22.226562 193.203125 22.230469 193.398438 22.1875 193.574219 C 22.367188 195.121094 22.183594 196.753906 22.460938 198.285156 C 22.515625 198.542969 22.523438 198.792969 22.503906 199.035156 C 22.78125 200.894531 22.632812 202.789062 22.980469 204.65625 L 23.121094 206.167969 C 23.414062 207.769531 23.394531 209.488281 23.785156 211.078125 C 23.855469 211.257812 23.894531 211.457031 23.886719 211.683594 L 24.355469 214.554688 L 24.632812 216.050781 L 24.828125 217.507812 C 24.910156 217.71875 24.960938 217.96875 24.976562 218.242188 L 25.082031 218.496094 L 25.152344 218.894531 C 25.273438 219.621094 25.382812 220.355469 25.582031 221.0625 L 25.644531 221.183594 L 26.359375 224.925781 C 26.855469 227.128906 27.433594 229.320312 28.027344 231.511719 C 28.316406 231.878906 28.453125 231.765625 28.4375 231.089844 C 28.410156 229.984375 28.617188 229.507812 28.824219 229.042969 L 28.824219 229.058594 L 28.824219 229.042969 C 28.839844 228.652344 28.738281 228.183594 28.53125 227.65625 C 27.34375 222.949219 26.65625 218.324219 26.050781 213.671875 C 25.355469 208.355469 24.804688 203.019531 24.542969 197.695312 C 24.378906 194.621094 24.328125 191.558594 24.371094 188.507812 C 24.433594 185.457031 24.621094 182.429688 24.726562 179.40625 C 24.804688 178.246094 24.960938 177.070312 24.867188 176 C 25.003906 174.859375 25.175781 173.734375 25.269531 172.59375 C 25.546875 169.125 26.101562 165.703125 26.535156 162.273438 C 27.207031 158.890625 27.640625 155.46875 28.476562 152.148438 L 29.59375 147.195312 C 29.980469 145.546875 30.476562 143.9375 30.90625 142.3125 C 31.730469 139.050781 32.84375 135.886719 33.917969 132.726562 C 34.589844 130.605469 35.515625 128.585938 36.292969 126.519531 L 37.148438 124.519531 L 37.640625 123.214844 C 38.902344 120.503906 40.027344 117.746094 41.386719 115.109375 L 41.9375 114.054688 L 42.085938 113.734375 C 42.808594 112.273438 43.519531 110.835938 44.230469 109.394531 L 46.554688 105.191406 C 47.746094 103.015625 49.085938 100.9375 50.433594 98.875 L 52.425781 95.777344 L 54.550781 92.777344 C 55.355469 91.691406 56.132812 90.574219 56.875 89.441406 C 58.355469 87.507812 59.953125 85.664062 61.371094 83.667969 C 61.757812 83.097656 62.332031 82.519531 62.816406 82.042969 C 63.660156 81.214844 64.378906 80.320312 65.132812 79.421875 C 65.796875 78.644531 66.445312 77.84375 67.128906 77.105469 C 68.703125 75.492188 70.273438 73.890625 71.839844 72.285156 C 73.414062 70.699219 75.105469 69.238281 76.722656 67.734375 C 78.78125 65.765625 81.027344 63.984375 83.152344 62.179688 C 89.015625 57.597656 94.9375 53.164062 101.195312 49.339844 C 103.476562 47.820312 105.882812 46.472656 108.214844 45.167969 C 111.007812 43.53125 113.972656 42.207031 116.800781 40.714844 C 121.015625 38.726562 125.210938 36.78125 129.515625 35.136719 L 129.53125 35.128906 L 130.429688 34.785156 L 130.835938 34.601562 C 132.84375 33.746094 134.933594 33.140625 136.972656 32.398438 C 138.6875 31.785156 140.433594 31.109375 142.160156 30.722656 C 145.179688 29.984375 148.09375 29.035156 151.101562 28.414062 C 152.769531 28.050781 154.4375 27.59375 156.113281 27.28125 C 157.796875 26.996094 159.46875 26.742188 161.125 26.589844 C 161.75 26.363281 162.484375 26.226562 163.238281 26.09375 C 166.71875 25.644531 170.1875 25.101562 173.628906 24.78125 C 175.675781 24.601562 177.707031 24.429688 179.722656 24.261719 C 181.746094 24.183594 183.773438 24.175781 185.789062 24.160156 C 187.035156 24.175781 188.277344 24.082031 189.507812 24.152344 L 190.285156 24.195312 C 191.113281 24.210938 191.925781 24.226562 192.742188 24.238281 L 194.859375 24.386719 C 194.902344 24.347656 194.988281 24.308594 195.101562 24.28125 L 195.300781 24.289062 L 198.574219 24.523438 L 199.59375 24.429688 L 200.050781 24.460938 L 201.097656 24.445312 C 202.527344 24.503906 204.167969 24.625 204.4375 24.125 C 204.6875 23.625 203.769531 23.261719 201.851562 23.046875 Z M 201.851562 23.046875 " fill-opacity="1" fill-rule="nonzero"/><g clip-path="url(#08aa2f6f2c)"><path fill="#ff66cc" d="M 149.328125 140.652344 C 148.511719 140.816406 144.613281 140.816406 143.472656 140.652344 C 140.710938 152.523438 122.339844 204.390625 117.132812 219.347656 C 116.96875 219.511719 116.644531 219.511719 116.644531 219.671875 C 110.789062 199.511719 100.546875 163.902344 96.972656 148.621094 C 95.671875 143.582031 96.484375 141.628906 98.761719 140.816406 C 100.386719 140.164062 101.199219 140.164062 105.101562 139.351562 C 105.425781 139.027344 105.425781 137.234375 105.101562 136.914062 C 101.683594 137.078125 97.457031 137.234375 89.492188 137.398438 C 82.5 137.398438 76.972656 136.75 70.46875 136.75 C 69.820312 137.074219 69.820312 139.027344 70.140625 139.351562 C 72.90625 139.675781 74.859375 140.003906 77.296875 140.652344 C 81.847656 141.789062 83.636719 143.253906 86.726562 153.011719 C 91.929688 168.292969 105.75 219.839844 110.140625 238.046875 C 110.953125 237.726562 115.667969 237.726562 116.320312 237.886719 C 119.570312 225.691406 137.617188 174.472656 142.984375 158.210938 L 143.632812 157.890625 C 152.085938 181.46875 166.71875 224.066406 170.296875 238.210938 C 171.113281 237.886719 175.503906 238.046875 176.152344 238.046875 C 176.738281 235.65625 177.628906 232.34375 178.742188 228.390625 C 177.375 224.019531 176.066406 219.839844 175.988281 219.839844 C 170.464844 205.53125 151.933594 152.683594 149.328125 140.652344 Z M 149.328125 140.652344 " fill-opacity="1" fill-rule="nonzero"/></g><g clip-path="url(#1afe8c5755)"><path fill="#ff66cc" d="M 217.925781 136.914062 C 215 136.914062 209.636719 137.402344 202.644531 137.402344 C 195.8125 137.402344 190.285156 136.914062 186.382812 136.914062 C 186.058594 137.234375 185.894531 139.027344 186.058594 139.351562 C 189.472656 139.839844 191.097656 140.164062 193.699219 140.652344 C 198.175781 141.546875 200.824219 146.320312 200.691406 150.765625 L 201.15625 149.570312 C 203.765625 144.117188 207.953125 141.328125 211.425781 140.488281 C 213.375 140.003906 215.976562 139.515625 217.925781 139.351562 C 218.089844 139.027344 218.089844 137.402344 217.925781 136.914062 Z M 217.925781 136.914062 " fill-opacity="1" fill-rule="nonzero"/></g><path fill="#ff66cc" d="M 204.402344 185.703125 C 204.527344 184.855469 204.605469 184 204.710938 183.148438 C 204.902344 181.664062 205.226562 180.207031 205.714844 178.78125 C 205.824219 178.464844 205.949219 178.152344 205.863281 177.800781 C 205.804688 177.582031 205.566406 177.417969 205.351562 177.480469 C 205.210938 177.519531 205.066406 177.578125 204.9375 177.644531 C 204.109375 178.089844 203.332031 178.597656 202.664062 179.265625 C 201.742188 180.191406 200.816406 181.117188 199.875 182.027344 C 198.761719 183.101562 197.929688 184.359375 197.257812 185.757812 C 196.484375 187.347656 195.992188 189.027344 195.441406 190.695312 C 195.371094 190.90625 195.285156 191.113281 195.207031 191.324219 C 195.039062 191.820312 195.074219 192.382812 194.710938 192.816406 C 194.496094 193.800781 194.203125 194.761719 193.785156 195.6875 C 193.875 195.804688 193.863281 195.925781 193.789062 196.046875 C 193.460938 197.269531 193.121094 198.488281 192.808594 199.714844 C 192.75 199.949219 192.617188 200.117188 192.476562 200.285156 C 191.542969 201.375 190.980469 202.6875 190.320312 203.933594 C 189.675781 205.152344 188.992188 206.34375 188.171875 207.457031 C 188.015625 208.023438 187.699219 208.492188 187.261719 209.113281 C 187.25 208.320312 187.585938 207.847656 187.808594 207.335938 C 188.101562 206.492188 188.359375 205.632812 188.699219 204.808594 C 189.578125 202.664062 190.28125 200.457031 190.902344 198.226562 C 191.359375 196.574219 191.835938 194.925781 192.179688 193.242188 C 192.398438 192.183594 192.640625 191.128906 192.816406 190.0625 C 192.941406 189.308594 193.246094 188.628906 193.539062 187.945312 C 194.121094 186.574219 194.6875 185.191406 195.304688 183.835938 C 196.03125 182.242188 196.628906 180.609375 197.214844 178.976562 C 198.042969 177.914062 199.046875 176.550781 199.882812 175.496094 C 200.703125 174.464844 201.554688 173.4375 202.695312 172.710938 C 202.921875 172.566406 203.078125 172.445312 203.351562 172.542969 C 204.046875 172.796875 204.714844 172.628906 205.324219 172.289062 C 206.007812 171.90625 206.472656 171.328125 206.546875 170.503906 C 206.597656 169.90625 206.402344 169.546875 205.839844 169.3125 C 204.980469 168.953125 204.21875 169.21875 203.539062 169.761719 C 203.234375 170.003906 202.96875 170.308594 202.710938 170.605469 C 202.410156 170.964844 202.144531 171.347656 202.195312 171.863281 C 202.230469 172.214844 202.027344 172.457031 201.785156 172.695312 C 200.945312 173.527344 200.121094 174.375 199.289062 175.21875 C 199.207031 175.433594 199.070312 175.597656 198.882812 175.726562 C 198.613281 176.0625 198.34375 176.402344 198.074219 176.738281 C 198.042969 176.777344 198.015625 176.820312 197.984375 176.859375 C 198.269531 176.082031 198.550781 175.304688 198.839844 174.527344 C 198.886719 174.390625 198.972656 174.261719 199.039062 174.128906 C 199.117188 173.917969 199.195312 173.707031 199.265625 173.496094 C 199.40625 173.070312 199.542969 172.640625 199.683594 172.210938 C 199.683594 172.085938 199.9375 171.226562 200.1875 170.261719 C 200.261719 170.175781 200.339844 170.09375 200.417969 170.007812 C 200.636719 169.773438 200.855469 169.566406 201.042969 169.296875 C 201.386719 168.796875 201.667969 168.257812 201.964844 167.730469 C 201.992188 167.6875 202.015625 167.640625 202.042969 167.597656 C 203.097656 165.847656 203.863281 163.921875 204.320312 161.929688 C 204.785156 159.9375 204.941406 157.871094 204.777344 155.832031 C 204.699219 154.890625 204.566406 153.980469 204.394531 153.058594 C 204.304688 152.570312 204.234375 152.078125 204.1875 151.585938 C 204.164062 151.359375 204.167969 150.78125 203.898438 150.707031 C 203.664062 150.640625 203.308594 151.058594 203.175781 151.199219 C 202.753906 151.652344 202.453125 152.191406 202.085938 152.683594 C 201.5 153.460938 200.953125 154.273438 200.457031 155.113281 C 199.464844 156.789062 198.667969 158.578125 198.117188 160.441406 C 197.679688 161.941406 197.710938 163.53125 197.992188 165.050781 C 198.125 165.78125 198.316406 166.5 198.539062 167.203125 C 198.644531 167.542969 198.722656 167.886719 198.859375 168.214844 C 199.019531 168.59375 199.183594 168.964844 199.316406 169.355469 C 199.441406 169.742188 199.507812 170.144531 199.515625 170.546875 C 199.449219 170.769531 199.378906 170.996094 199.304688 171.21875 C 198.433594 173.878906 197.511719 176.527344 196.660156 179.199219 C 196.082031 181.011719 195.394531 182.792969 194.59375 184.519531 C 194.53125 184.652344 194.433594 184.765625 194.351562 184.890625 C 194.269531 185.097656 194.203125 185.304688 194.113281 185.503906 C 194.023438 185.707031 194.007812 185.96875 193.675781 186.132812 C 193.589844 185.597656 193.757812 185.175781 193.789062 184.753906 C 193.691406 184.675781 193.605469 184.585938 193.742188 184.453125 C 194.089844 183 194.242188 181.519531 194.386719 180.039062 C 194.53125 178.558594 194.652344 177.074219 194.78125 175.59375 C 194.808594 175.296875 194.84375 175 194.847656 174.703125 C 194.863281 173.589844 194.863281 172.480469 194.878906 171.367188 C 194.890625 170.167969 194.753906 168.988281 194.527344 167.816406 C 194.300781 166.640625 194.34375 165.445312 194.328125 164.253906 C 194.324219 164.117188 194.414062 163.976562 194.464844 163.839844 C 194.453125 163.761719 194.472656 163.691406 194.535156 163.640625 C 194.523438 163.398438 194.558594 163.175781 194.703125 162.976562 C 194.761719 162.761719 194.824219 162.542969 194.882812 162.324219 C 195.140625 161.425781 195.394531 160.527344 195.660156 159.632812 C 195.699219 159.5 196.210938 157.339844 196.382812 156.574219 C 196.851562 154.484375 196.730469 152.417969 196.058594 150.386719 C 195.820312 149.671875 195.492188 149 195.027344 148.40625 C 194.308594 147.488281 193.8125 146.441406 193.285156 145.417969 C 192.855469 144.589844 192.449219 143.746094 192.023438 142.917969 C 191.9375 142.757812 191.804688 142.617188 191.671875 142.496094 C 191.59375 142.417969 191.46875 142.417969 191.371094 142.503906 C 191.164062 142.683594 191.089844 142.9375 190.992188 143.183594 C 190.460938 144.542969 190.160156 145.964844 189.886719 147.394531 C 189.722656 148.234375 189.59375 149.085938 189.488281 149.9375 C 189.214844 152.179688 189.496094 154.398438 189.761719 156.625 C 189.839844 157.273438 190.082031 157.851562 190.351562 158.421875 C 191.179688 160.179688 192.121094 161.882812 192.84375 163.691406 C 192.882812 163.792969 192.902344 163.921875 192.976562 164 C 193.601562 164.648438 193.613281 165.464844 193.664062 166.289062 C 193.699219 166.878906 193.757812 167.480469 194.054688 168.023438 C 194.238281 168.359375 194.238281 168.742188 194.273438 169.117188 C 194.496094 171.394531 194.378906 173.671875 194.15625 175.9375 C 194.027344 177.238281 193.890625 178.539062 193.75 179.835938 C 193.714844 180.132812 193.628906 180.421875 193.566406 180.710938 C 193.648438 180.828125 193.640625 180.941406 193.574219 181.0625 C 193.617188 181.773438 193.425781 182.464844 193.308594 183.160156 C 192.878906 185.648438 192.417969 188.125 191.960938 190.609375 C 191.886719 191.007812 191.757812 191.398438 191.65625 191.792969 C 191.546875 192.292969 191.445312 192.792969 191.328125 193.289062 C 191.304688 193.386719 191.226562 193.480469 191.109375 193.421875 C 191.054688 193.394531 191.003906 193.300781 191.007812 193.242188 C 191.042969 192.625 191.09375 192.007812 191.140625 191.390625 C 191.015625 190.058594 190.84375 188.726562 190.773438 187.390625 C 190.714844 186.296875 190.515625 185.230469 190.136719 184.222656 C 189.441406 182.351562 189.152344 180.402344 188.808594 178.457031 C 188.605469 177.285156 188.464844 176.097656 188.273438 174.921875 C 188.195312 174.445312 188.121094 173.953125 187.941406 173.511719 C 187.367188 172.089844 187.414062 170.589844 187.289062 169.109375 C 187.265625 168.820312 187.464844 168.636719 187.574219 168.40625 C 187.96875 167.5625 188.039062 166.695312 187.679688 165.804688 C 187.503906 165.378906 187.191406 165.15625 186.761719 165.074219 C 186.0625 164.9375 185.410156 165.121094 184.859375 165.535156 C 184.207031 166.027344 184.183594 166.75 184.382812 167.46875 C 184.585938 168.195312 184.921875 168.863281 185.460938 169.40625 C 185.597656 169.453125 185.734375 169.496094 185.871094 169.539062 C 186.050781 169.5 186.234375 169.460938 186.417969 169.414062 C 186.632812 169.355469 186.789062 169.414062 186.8125 169.648438 C 186.855469 170.054688 186.921875 170.472656 186.886719 170.875 C 186.824219 171.675781 186.984375 172.441406 187.207031 173.191406 C 187.53125 174.273438 187.6875 175.382812 187.835938 176.496094 C 188.214844 179.378906 188.625 182.253906 189.613281 185.011719 C 189.902344 185.816406 190.046875 186.667969 190.082031 187.539062 C 190.132812 188.886719 190.414062 190.207031 190.417969 191.558594 C 190.421875 193.199219 190.464844 194.84375 190.421875 196.484375 C 190.394531 197.421875 190.046875 198.316406 189.765625 199.207031 C 188.691406 202.554688 187.566406 205.886719 186.175781 209.117188 C 185.539062 210.589844 184.917969 212.074219 184.066406 213.445312 C 183.957031 213.71875 183.859375 213.996094 183.734375 214.261719 C 183.664062 214.414062 183.574219 214.589844 183.296875 214.5 C 183.339844 214.183594 183.378906 213.859375 183.421875 213.535156 C 183.476562 212.335938 183.8125 211.179688 183.929688 209.992188 C 184.164062 207.582031 184.582031 205.179688 184.421875 202.742188 C 184.410156 202.523438 184.476562 202.300781 184.503906 202.078125 C 184.425781 201.972656 184.4375 201.863281 184.484375 201.753906 C 184.605469 201.246094 184.722656 200.738281 184.851562 200.230469 C 185.214844 198.785156 185.363281 197.292969 185.6875 195.847656 C 186.105469 193.972656 186.234375 192.078125 186.363281 190.183594 C 186.503906 188.140625 186.089844 186.164062 185.574219 184.207031 C 185.476562 183.851562 185.285156 183.515625 185.101562 183.195312 C 184.308594 181.824219 183.765625 180.359375 183.460938 178.804688 C 183.230469 177.628906 182.792969 176.503906 182.667969 175.308594 C 182.65625 175.164062 182.59375 175.007812 182.425781 174.96875 C 182.203125 174.910156 182.085938 175.082031 181.976562 175.226562 C 181.910156 175.3125 181.878906 175.425781 181.839844 175.535156 C 181.648438 176.0625 181.460938 176.589844 181.269531 177.117188 C 181.152344 177.433594 181.035156 177.746094 180.914062 178.058594 C 180.953125 178.226562 180.914062 178.371094 180.789062 178.492188 C 180.4375 179.59375 180.082031 180.695312 179.738281 181.796875 C 179.488281 182.585938 179.394531 183.402344 179.328125 184.222656 C 179.179688 186.011719 179.28125 187.800781 179.390625 189.589844 C 179.457031 190.710938 179.792969 191.789062 180.152344 192.847656 C 180.449219 193.730469 180.730469 194.617188 180.9375 195.53125 C 181.0625 196.070312 181.207031 196.640625 181.484375 197.113281 C 182.082031 198.136719 182.304688 199.273438 182.636719 200.375 C 182.851562 201.089844 183.003906 201.824219 183.296875 202.515625 C 183.671875 203.398438 183.703125 204.332031 183.636719 205.265625 C 183.542969 206.644531 183.464844 208.023438 183.304688 209.394531 C 183.144531 210.769531 182.816406 212.121094 182.703125 213.492188 C 182.574219 215.109375 182.226562 216.996094 181.273438 219.460938 C 180.976562 220.226562 180.925781 220.246094 180.59375 220.996094 C 180.359375 221.519531 180.128906 222.046875 179.910156 222.574219 C 179.433594 223.703125 178.976562 224.832031 178.492188 225.953125 C 178.371094 226.234375 178.25 226.511719 178.125 226.789062 C 178.046875 226.972656 177.921875 227.128906 177.910156 227.332031 C 177.898438 227.585938 177.964844 227.867188 178.046875 228.109375 C 178.09375 228.238281 178.148438 228.367188 178.210938 228.488281 C 178.230469 228.527344 178.421875 229.585938 178.414062 229.609375 C 178.523438 229.335938 181.078125 221.90625 181.320312 221.347656 C 181.613281 220.664062 181.734375 221.027344 181.921875 220.316406 C 182.058594 219.804688 183.957031 215.726562 184.089844 215.464844 C 184.421875 214.792969 184.796875 214.144531 185.109375 213.46875 C 185.757812 212.070312 186.570312 210.777344 187.5 209.554688 C 188.378906 208.390625 189.078125 207.105469 189.890625 205.894531 C 190.660156 204.746094 191.261719 203.5 191.949219 202.296875 C 192.148438 201.941406 192.390625 201.605469 192.636719 201.28125 C 192.980469 200.839844 193.339844 200.421875 193.578125 199.894531 C 193.898438 199.183594 194.5625 198.78125 195.175781 198.363281 C 195.636719 198.050781 196.144531 197.808594 196.640625 197.550781 C 197.511719 197.097656 198.242188 196.464844 198.988281 195.84375 C 200.644531 194.457031 202.023438 192.851562 202.921875 190.871094 C 203.65625 189.214844 204.136719 187.488281 204.402344 185.703125 Z M 204.402344 185.703125 " fill-opacity="1" fill-rule="nonzero"/><g clip-path="url(#399d85df0f)"><path fill="#ff66cc" d="M 256.097656 140.46875 C 257.066406 140.160156 261.0625 139.503906 263.308594 139.1875 C 263.625 138.707031 263.625 137.105469 263.308594 136.78125 C 259.785156 136.78125 252.894531 137.265625 247.289062 137.265625 C 239.605469 137.265625 233.679688 136.78125 229.832031 136.78125 C 229.511719 137.265625 229.511719 138.707031 229.832031 139.1875 C 231.433594 139.347656 234.636719 139.503906 236.558594 139.988281 C 239.675781 140.734375 245.890625 143.089844 247.203125 150.03125 C 247.554688 147.4375 249.269531 142.652344 256.097656 140.46875 Z M 256.097656 140.46875 " fill-opacity="1" fill-rule="nonzero"/></g><g clip-path="url(#3c0aad0bd5)"><path fill="#ff66cc" d="M 302.726562 211.390625 C 299.617188 218.917969 295.691406 225.464844 293.402344 228.246094 C 290.617188 231.683594 287.835938 233.320312 284.402344 233.484375 C 277.6875 233.972656 258.054688 233.972656 254.78125 232.335938 C 245.980469 229.9375 248.847656 210.234375 248.960938 209.539062 C 249.195312 208.105469 249.605469 206.726562 250.140625 205.378906 C 250.648438 204.101562 250.960938 202.757812 251.390625 201.453125 C 251.800781 200.214844 252.027344 198.929688 252.351562 197.667969 C 252.445312 197.296875 252.574219 196.929688 252.722656 196.570312 C 252.921875 196.082031 253.140625 195.609375 253.222656 195.074219 C 253.335938 194.34375 253.839844 193.816406 254.289062 193.28125 C 254.628906 192.878906 255.027344 192.527344 255.414062 192.171875 C 256.089844 191.542969 256.597656 190.78125 257.117188 190.027344 C 258.269531 188.351562 259.117188 186.542969 259.429688 184.519531 C 259.691406 182.835938 259.691406 181.148438 259.484375 179.460938 C 259.382812 178.660156 259.238281 177.863281 259.121094 177.0625 C 258.917969 175.664062 258.84375 174.257812 258.929688 172.84375 C 258.953125 172.527344 258.988281 172.210938 258.816406 171.914062 C 258.710938 171.730469 258.453125 171.640625 258.273438 171.75 C 258.15625 171.824219 258.039062 171.910156 257.941406 172.007812 C 257.300781 172.617188 256.722656 173.277344 256.285156 174.050781 C 255.675781 175.125 255.074219 176.199219 254.449219 177.261719 C 253.707031 178.523438 253.269531 179.875 253.011719 181.3125 C 252.714844 182.953125 252.6875 184.605469 252.613281 186.253906 C 252.601562 186.464844 252.574219 186.675781 252.554688 186.886719 C 252.527344 187.378906 252.703125 187.882812 252.484375 188.367188 C 252.539062 189.316406 252.511719 190.265625 252.367188 191.207031 C 252.480469 191.296875 252.496094 191.40625 252.460938 191.535156 C 252.46875 192.726562 252.472656 193.921875 252.496094 195.113281 C 252.5 195.339844 252.421875 195.53125 252.335938 195.714844 C 251.765625 196.941406 251.585938 198.273438 251.300781 199.574219 C 251.019531 200.84375 250.699219 202.097656 250.238281 203.316406 C 250.238281 203.871094 250.066406 204.375 249.824219 205.050781 C 249.613281 204.332031 249.804688 203.816406 249.875 203.296875 C 249.925781 202.453125 249.945312 201.609375 250.042969 200.773438 C 250.300781 198.601562 250.382812 196.425781 250.382812 194.238281 C 250.382812 192.621094 250.398438 191.003906 250.285156 189.386719 C 250.214844 188.371094 250.167969 187.351562 250.058594 186.339844 C 249.980469 185.625 250.089844 184.929688 250.183594 184.234375 C 250.367188 182.839844 250.53125 181.441406 250.75 180.058594 C 251.007812 178.429688 251.140625 176.789062 251.257812 175.152344 C 251.257812 175.152344 251.257812 175.15625 251.261719 175.160156 C 251.742188 173.988281 252.316406 172.492188 252.804688 171.328125 C 253.289062 170.179688 253.800781 169.035156 254.65625 168.085938 C 254.824219 167.894531 254.933594 167.746094 255.210938 167.769531 C 255.90625 167.820312 256.46875 167.5 256.933594 167.039062 C 257.460938 166.519531 257.738281 165.875 257.59375 165.109375 C 257.492188 164.550781 257.222656 164.273438 256.652344 164.207031 C 255.78125 164.097656 255.15625 164.53125 254.675781 165.195312 C 254.457031 165.492188 254.292969 165.835938 254.140625 166.171875 C 253.953125 166.574219 253.808594 166.988281 253.984375 167.445312 C 254.105469 167.757812 253.984375 168.027344 253.824219 168.300781 C 253.269531 169.269531 252.738281 170.246094 252.195312 171.222656 C 252.175781 171.4375 252.09375 171.625 251.953125 171.785156 C 251.792969 172.160156 251.632812 172.535156 251.476562 172.910156 C 251.460938 172.953125 251.441406 172.996094 251.425781 173.039062 C 251.488281 172.261719 251.546875 171.488281 251.613281 170.710938 C 251.625 170.570312 251.667969 170.433594 251.695312 170.296875 C 251.710938 170.085938 251.726562 169.875 251.742188 169.664062 C 251.761719 169.238281 251.777344 168.816406 251.796875 168.394531 C 251.761719 168.277344 251.777344 167.433594 251.761719 166.496094 C 251.808594 166.398438 251.859375 166.304688 251.910156 166.207031 C 252.050781 165.9375 252.199219 165.695312 252.300781 165.402344 C 252.484375 164.859375 252.601562 164.300781 252.738281 163.746094 C 252.75 163.699219 252.765625 163.652344 252.777344 163.605469 C 253.292969 161.75 253.5 159.808594 253.414062 157.886719 C 253.332031 155.960938 252.953125 154.042969 252.289062 152.234375 C 251.984375 151.398438 251.632812 150.605469 251.238281 149.808594 C 251.035156 149.386719 250.847656 148.957031 250.679688 148.523438 C 250.597656 148.320312 250.457031 147.796875 250.191406 147.796875 C 249.960938 147.796875 249.742188 148.265625 249.660156 148.425781 C 249.390625 148.941406 249.253906 149.507812 249.042969 150.046875 C 248.707031 150.902344 248.417969 151.777344 248.179688 152.664062 C 247.703125 154.433594 247.425781 156.261719 247.402344 158.09375 C 247.382812 159.566406 247.808594 161 248.453125 162.316406 C 248.757812 162.941406 249.113281 163.542969 249.492188 164.128906 C 249.671875 164.414062 249.828125 164.703125 250.035156 164.964844 C 250.277344 165.269531 250.523438 165.570312 250.738281 165.890625 C 250.953125 166.207031 251.113281 166.558594 251.222656 166.921875 C 251.214844 167.140625 251.210938 167.359375 251.199219 167.578125 C 251.078125 170.21875 250.910156 172.855469 250.8125 175.5 C 250.746094 177.289062 250.566406 179.078125 250.277344 180.851562 C 250.253906 180.988281 250.191406 181.117188 250.152344 181.25 C 250.128906 181.457031 250.121094 181.664062 250.089844 181.871094 C 250.058594 182.074219 250.113281 182.316406 249.851562 182.550781 C 249.640625 182.082031 249.683594 181.660156 249.605469 181.265625 C 249.496094 181.21875 249.394531 181.164062 249.488281 181.007812 C 249.433594 179.601562 249.199219 178.21875 248.957031 176.835938 C 248.710938 175.453125 248.449219 174.078125 248.191406 172.695312 C 248.140625 172.421875 248.097656 172.144531 248.027344 171.871094 C 247.761719 170.859375 247.476562 169.847656 247.210938 168.832031 C 246.925781 167.742188 246.5 166.707031 245.996094 165.699219 C 245.496094 164.6875 245.230469 163.59375 244.917969 162.515625 C 244.882812 162.390625 244.929688 162.238281 244.9375 162.097656 C 244.90625 162.03125 244.910156 161.964844 244.949219 161.902344 C 244.878906 161.691406 244.859375 161.476562 244.9375 161.257812 C 244.9375 161.042969 244.9375 160.832031 244.9375 160.621094 C 244.945312 159.742188 244.945312 158.863281 244.960938 157.984375 C 244.964844 157.847656 244.882812 155.757812 244.847656 155.019531 C 244.742188 153.003906 244.117188 151.15625 242.992188 149.480469 C 242.597656 148.890625 242.128906 148.367188 241.554688 147.945312 C 240.671875 147.289062 239.957031 146.46875 239.214844 145.667969 C 238.617188 145.023438 238.039062 144.359375 237.4375 143.714844 C 237.320312 143.59375 237.164062 143.496094 237.011719 143.417969 C 236.921875 143.367188 236.804688 143.398438 236.742188 143.503906 C 236.601562 143.71875 236.59375 143.96875 236.570312 144.210938 C 236.429688 145.585938 236.519531 146.953125 236.625 148.320312 C 236.6875 149.125 236.789062 149.929688 236.90625 150.730469 C 237.222656 152.835938 238.042969 154.78125 238.84375 156.734375 C 239.078125 157.304688 239.445312 157.769531 239.835938 158.21875 C 241.03125 159.605469 242.316406 160.914062 243.425781 162.375 C 243.492188 162.457031 243.539062 162.566406 243.625 162.617188 C 244.355469 163.050781 244.574219 163.789062 244.828125 164.527344 C 245.007812 165.054688 245.210938 165.585938 245.621094 166.003906 C 245.871094 166.261719 245.96875 166.613281 246.09375 166.941406 C 246.871094 168.957031 247.339844 171.050781 247.710938 173.167969 C 247.921875 174.378906 248.128906 175.597656 248.324219 176.8125 C 248.367188 177.085938 248.359375 177.371094 248.378906 177.652344 C 248.484375 177.734375 248.507812 177.84375 248.476562 177.96875 C 248.691406 178.605469 248.695312 179.28125 248.761719 179.941406 C 249 182.308594 249.207031 184.675781 249.417969 187.046875 C 249.449219 187.429688 249.433594 187.816406 249.441406 188.199219 C 249.464844 188.679688 249.5 189.160156 249.515625 189.640625 C 249.523438 189.734375 249.476562 189.839844 249.351562 189.820312 C 249.296875 189.808594 249.226562 189.734375 249.214844 189.679688 C 249.089844 189.109375 248.980469 188.535156 248.867188 187.964844 C 248.414062 186.785156 247.925781 185.617188 247.523438 184.421875 C 247.195312 183.445312 246.742188 182.527344 246.148438 181.707031 C 245.042969 180.183594 244.285156 178.488281 243.488281 176.808594 C 243.003906 175.792969 242.578125 174.753906 242.109375 173.734375 C 241.917969 173.320312 241.722656 172.894531 241.449219 172.535156 C 240.570312 171.390625 240.234375 170.015625 239.746094 168.699219 C 239.652344 168.445312 239.785156 168.226562 239.828125 167.988281 C 239.972656 167.125 239.816406 166.316406 239.265625 165.601562 C 239 165.257812 238.660156 165.136719 238.25 165.167969 C 237.578125 165.21875 237.03125 165.554688 236.636719 166.066406 C 236.167969 166.679688 236.328125 167.339844 236.691406 167.945312 C 237.058594 168.554688 237.53125 169.074219 238.160156 169.433594 C 238.296875 169.4375 238.429688 169.445312 238.566406 169.449219 C 238.722656 169.363281 238.878906 169.285156 239.03125 169.195312 C 239.210938 169.089844 239.367188 169.097656 239.449219 169.308594 C 239.589844 169.667969 239.753906 170.027344 239.828125 170.40625 C 239.972656 171.152344 240.3125 171.800781 240.703125 172.429688 C 241.269531 173.328125 241.695312 174.296875 242.109375 175.269531 C 243.179688 177.792969 244.28125 180.296875 245.871094 182.558594 C 246.335938 183.214844 246.683594 183.949219 246.933594 184.730469 C 247.320312 185.9375 247.910156 187.074219 248.253906 188.300781 C 248.671875 189.789062 249.125 191.269531 249.5 192.773438 C 249.710938 193.628906 249.621094 194.53125 249.589844 195.40625 C 249.460938 198.71875 249.277344 202.03125 248.828125 205.316406 C 248.625 206.816406 248.4375 208.320312 248.007812 209.777344 C 247.976562 210.054688 247.957031 210.332031 247.914062 210.601562 C 247.886719 210.761719 247.847656 210.941406 247.574219 210.929688 C 247.53125 210.632812 247.488281 210.328125 247.445312 210.023438 C 247.191406 208.921875 247.207031 207.785156 247.015625 206.679688 C 246.621094 204.429688 246.394531 202.144531 245.632812 199.96875 C 245.566406 199.773438 245.570312 199.554688 245.539062 199.347656 C 245.445312 199.269531 245.425781 199.167969 245.441406 199.054688 C 245.421875 198.5625 245.402344 198.070312 245.386719 197.578125 C 245.355469 196.171875 245.113281 194.777344 245.042969 193.382812 C 244.949219 191.574219 244.585938 189.824219 244.226562 188.066406 C 243.839844 186.175781 242.960938 184.488281 242 182.839844 C 241.824219 182.539062 241.5625 182.28125 241.3125 182.039062 C 240.242188 180.992188 239.382812 179.800781 238.714844 178.460938 C 238.207031 177.457031 237.527344 176.542969 237.113281 175.484375 C 237.0625 175.359375 236.96875 175.234375 236.808594 175.238281 C 236.589844 175.242188 236.527344 175.425781 236.464844 175.585938 C 236.425781 175.679688 236.425781 175.792969 236.417969 175.894531 C 236.375 176.421875 236.339844 176.953125 236.300781 177.480469 C 236.273438 177.796875 236.246094 178.109375 236.21875 178.425781 C 236.289062 178.566406 236.292969 178.710938 236.210938 178.851562 C 236.171875 179.941406 236.125 181.027344 236.089844 182.113281 C 236.0625 182.894531 236.183594 183.660156 236.332031 184.421875 C 236.648438 186.085938 237.191406 187.6875 237.742188 189.28125 C 238.085938 190.285156 238.660156 191.179688 239.253906 192.050781 C 239.75 192.777344 240.230469 193.511719 240.648438 194.285156 C 240.898438 194.75 241.171875 195.226562 241.542969 195.585938 C 242.34375 196.363281 242.835938 197.339844 243.414062 198.257812 C 243.789062 198.851562 244.113281 199.480469 244.558594 200.035156 C 245.121094 200.746094 245.382812 201.585938 245.5625 202.449219 C 245.820312 203.726562 246.101562 205 246.304688 206.28125 C 246.503906 207.570312 246.546875 208.882812 246.792969 210.15625 C 247.070312 211.59375 246.761719 217.300781 246.613281 218.679688 C 246.515625 219.394531 246.414062 220.109375 246.328125 220.828125 C 245.558594 225.734375 243.464844 232.382812 235.644531 234.449219 C 233.378906 235.050781 230.570312 235.105469 226.96875 235.597656 C 226.644531 236.085938 226.644531 237.726562 226.96875 238.050781 C 229.589844 238.050781 239.40625 237.558594 245.953125 237.558594 C 252.988281 237.558594 284.410156 238.210938 292.753906 238.210938 C 295.539062 238.210938 297.007812 237.230469 297.828125 236.25 C 300.117188 231.832031 303.882812 218.578125 305.191406 212.191406 C 305.019531 211.554688 303.21875 211.0625 302.726562 211.390625 Z M 302.726562 211.390625 " fill-opacity="1" fill-rule="nonzero"/></g></svg>