<?xml version="1.0" encoding="UTF-8"?>
<svg version="1.1" xmlns="http://www.w3.org/2000/svg" width="500" height="500">
<path d="M0 0 C0.55220215 0.44923828 1.1044043 0.89847656 1.67333984 1.36132812 C15.02086028 12.30104565 27.4884478 24.28050768 38 38 C38.72316406 38.9178125 39.44632812 39.835625 40.19140625 40.78125 C78.58428676 90.45829887 95.14506212 154.39572963 87.40600586 216.51269531 C79.28708662 275.87471024 49.40491545 333.37238857 1.8671875 370.82421875 C0.44792969 371.90123047 0.44792969 371.90123047 -1 373 C-1.56686523 373.4326416 -2.13373047 373.8652832 -2.71777344 374.31103516 C-54.4143064 413.59875119 -118.57564753 430.72937928 -183 422 C-242.1664582 413.64516539 -299.57454977 381.88662264 -336 334 C-336.41137207 333.47035645 -336.82274414 332.94071289 -337.24658203 332.39501953 C-376.11396513 282.22546731 -393.26725221 218.36583788 -385.40625 155.43530273 C-377.00250071 94.34543718 -345.99716177 37.08102074 -297 -1 C-296.14027588 -1.68231689 -296.14027588 -1.68231689 -295.26318359 -2.37841797 C-273.30492606 -19.76954387 -247.95733605 -32.79253499 -221.27880859 -41.27099609 C-219.1508155 -41.95175326 -217.03876751 -42.66882263 -214.92578125 -43.39453125 C-143.3424791 -67.09772762 -57.51921989 -46.99891067 0 0 Z " fill="#B3638F" transform="translate(399,64)"/>
<path d="M0 0 C0.55220215 0.44923828 1.1044043 0.89847656 1.67333984 1.36132812 C15.02086028 12.30104565 27.4884478 24.28050768 38 38 C38.72316406 38.9178125 39.44632812 39.835625 40.19140625 40.78125 C78.58428676 90.45829887 95.14506212 154.39572963 87.40600586 216.51269531 C79.28708662 275.87471024 49.40491545 333.37238857 1.8671875 370.82421875 C0.44792969 371.90123047 0.44792969 371.90123047 -1 373 C-1.56686523 373.4326416 -2.13373047 373.8652832 -2.71777344 374.31103516 C-54.4143064 413.59875119 -118.57564753 430.72937928 -183 422 C-242.1664582 413.64516539 -299.57454977 381.88662264 -336 334 C-336.41137207 333.47035645 -336.82274414 332.94071289 -337.24658203 332.39501953 C-376.11396513 282.22546731 -393.26725221 218.36583788 -385.40625 155.43530273 C-377.00250071 94.34543718 -345.99716177 37.08102074 -297 -1 C-296.14027588 -1.68231689 -296.14027588 -1.68231689 -295.26318359 -2.37841797 C-273.30492606 -19.76954387 -247.95733605 -32.79253499 -221.27880859 -41.27099609 C-219.1508155 -41.95175326 -217.03876751 -42.66882263 -214.92578125 -43.39453125 C-143.3424791 -67.09772762 -57.51921989 -46.99891067 0 0 Z M-192 -40 C-192.77134277 -39.86078125 -193.54268555 -39.7215625 -194.33740234 -39.578125 C-213.38207979 -36.08383719 -231.61418175 -29.43384266 -249 -21 C-249.76521973 -20.63036133 -250.53043945 -20.26072266 -251.31884766 -19.87988281 C-273.75235316 -8.90247656 -292.95300508 5.86069417 -311 23 C-311.82757813 23.78503906 -312.65515625 24.57007812 -313.5078125 25.37890625 C-338.14749368 49.37469333 -355.78589279 80.74862697 -367 113 C-367.24443848 113.67772461 -367.48887695 114.35544922 -367.74072266 115.05371094 C-370.91648017 123.89512852 -372.92844658 132.86270204 -374.75 142.0625 C-375.06650513 143.64067505 -375.06650513 143.64067505 -375.3894043 145.25073242 C-377.96166419 158.90999187 -378.2653856 172.76178074 -378.3125 186.625 C-378.31511841 187.37446899 -378.31773682 188.12393799 -378.32043457 188.89611816 C-378.32793315 209.18405789 -376.28544959 229.62333254 -370 249 C-369.50239001 250.61842375 -369.00501206 252.23691886 -368.5078125 253.85546875 C-356.99895167 290.51445542 -337.32360574 321.23387575 -311 349 C-309.93265625 350.13115234 -309.93265625 350.13115234 -308.84375 351.28515625 C-278.13377801 382.93908229 -234.87125655 403.71424071 -192 412 C-191.33901306 412.13097076 -190.67802612 412.26194153 -189.99700928 412.3968811 C-177.4207715 414.83311471 -165.11808505 415.50000565 -152.32226562 415.44604492 C-149.26623767 415.43754516 -146.21209482 415.46641947 -143.15625 415.49804688 C-129.06390454 415.54743668 -115.78473161 413.84202571 -102 411 C-100.64192986 410.72950081 -100.64192986 410.72950081 -99.25642395 410.45353699 C-43.75251349 399.39190665 8.14433029 363.64082055 40 317 C43.88032416 311.12512894 47.49130977 305.10265312 51 299 C51.40347656 298.30293945 51.80695313 297.60587891 52.22265625 296.88769531 C58.34494836 286.1938897 62.96610824 275.1426902 67.09326172 263.54296875 C67.94043906 261.16704006 68.81390554 258.80235146 69.69140625 256.4375 C73.87984016 244.86368814 76.19341955 233.15602822 78 221 C78.11859375 220.23703613 78.2371875 219.47407227 78.359375 218.68798828 C87.12167141 160.36395282 72.32334348 99.51152887 37.64086914 51.91748047 C24.97169907 34.84705419 10.86627918 19.0242471 -6 6 C-6.92039062 5.27425781 -7.84078125 4.54851562 -8.7890625 3.80078125 C-48.86240308 -27.14534295 -97.60288281 -43.51968094 -148.0625 -43.3125 C-148.96219513 -43.31100952 -149.86189026 -43.30951904 -150.78884888 -43.3079834 C-164.71905208 -43.2665608 -178.28837433 -42.63608631 -192 -40 Z " fill="#0A0507" transform="translate(399,64)"/>
<path d="M0 0 C5.34552769 6.07446328 5.62584925 13.84640332 5.49609375 21.5859375 C3.74317814 42.90255666 -9.52944503 63.2597096 -21.68164062 80.1640625 C-36.24887285 100.4502822 -49.65242529 121.86758265 -47 148 C-45.12129783 157.2481351 -41.21320251 165.04544997 -33.60546875 170.81640625 C-23.87775974 177.01763396 -14.21902418 178.2737971 -2.82421875 176.5078125 C13.21610842 174.37784056 29.29605983 174.47714393 43 183.8125 C54.18039898 192.65959833 57.25527517 204.82288191 60.71875 218.2578125 C65.05712852 234.6220004 69.76008802 250.93450713 77.56640625 266.0078125 C79 269 79 269 79 272 C69.90525246 261.22990422 65.50199699 247.44627249 60.75 234.375 C60.49387939 233.67338745 60.23775879 232.9717749 59.97387695 232.24890137 C56.94455371 223.91461792 54.20683848 215.59636903 51.94140625 207.01782227 C49.34394865 198.69127313 44.30913711 191.78828508 37 187 C26.21015267 181.95853685 13.90204779 182.11667006 2.375 184 C-8.28690373 185.65484093 -22.76476511 187.23342176 -33 183 C-34.08475598 182.15558543 -35.16212814 181.30164935 -36.234375 180.44140625 C-40.32274379 177.41624281 -43.62265096 177.4882272 -48.5625 177.625 C-58.90804015 177.4548081 -66.47439298 174.67086468 -74.5 167.88671875 C-79.28869929 162.9307671 -81.99652658 157.55373507 -84 151 C-84.18949219 150.40445313 -84.37898437 149.80890625 -84.57421875 149.1953125 C-88.02882113 131.38350938 -81.34988916 114.86886022 -72 100 C-69.52424917 96.4771925 -66.8566128 93.21909965 -64 90 C-62.9171875 88.77216797 -62.9171875 88.77216797 -61.8125 87.51953125 C-59.55926323 84.99637549 -57.28018763 82.49883575 -55 80 C-54.36771484 79.28537598 -53.73542969 78.57075195 -53.08398438 77.83447266 C-47.40575426 71.44080567 -41.46409022 65.37635117 -35.375 59.375 C-29.34354928 53.42971286 -23.49160601 47.44828851 -18 41 C-17.12214844 40.01515625 -16.24429688 39.0303125 -15.33984375 38.015625 C-7.01782615 28.43515595 -1.33349307 19.04990095 -0.4375 6.25 C-0.31181641 4.49429688 -0.31181641 4.49429688 -0.18359375 2.703125 C-0.12300781 1.81109375 -0.06242187 0.9190625 0 0 Z " fill="#FBA79E" transform="translate(298,108)"/>
<path d="M0 0 C10.72493692 4.20301582 16.42808779 20.28284896 21 30 C22.09248847 32.29774212 23.19882941 34.58731214 24.3125 36.875 C24.76238281 37.82117188 25.21226562 38.76734375 25.67578125 39.7421875 C26.94103362 42.27636212 26.94103362 42.27636212 30 44 C30 44.66 30 45.32 30 46 C28.68 46 27.36 46 26 46 C26.45551385 51.6597596 27.18624207 55.87836028 31.5625 59.75 C35.25961191 62.62778857 39.19058788 65.1477427 43.21484375 67.54296875 C45.32564425 69.26578842 45.64190582 70.34555587 46 73 C44.8803014 74.00593243 43.7540588 75.0045849 42.625 76 C41.99851562 76.556875 41.37203125 77.11375 40.7265625 77.6875 C39 79 39 79 37 79 C38.26941497 82.91402949 39.51167694 84.79072873 43 87 C42.814375 88.051875 42.62875 89.10375 42.4375 90.1875 C41.82612353 93.79498147 41.82612353 93.79498147 42.5 96.5 C43 99 43 99 42.5 102.125 C41.93980088 106.46654321 42.47316399 110.06668119 43.234375 114.3515625 C43 117 43 117 40.91772461 119.63012695 C37.33789623 122.53778272 35.63988213 122.60316066 31.08203125 122.56640625 C30.42474533 122.57204086 29.76745941 122.57767548 29.09025574 122.58348083 C26.99693739 122.59986261 24.90574228 122.58448835 22.8125 122.5625 C11.14326313 122.46836024 0.59193449 122.78760603 -8.3984375 131.16015625 C-14.98534092 138.72706237 -17.13051361 145.55000128 -17.25 155.4375 C-17.27578125 156.71496094 -17.3015625 157.99242187 -17.328125 159.30859375 C-16.97851884 163.24166306 -15.90944601 165.58812148 -14 169 C-14 169.66 -14 170.32 -14 171 C-20.4544657 168.28233023 -24.4256726 161.73440078 -27.4375 155.625 C-31.07116819 145.57342436 -30.54324903 132.0933728 -26.2421875 122.37890625 C-25.83226562 121.59386719 -25.42234375 120.80882812 -25 120 C-24.61070312 119.24589844 -24.22140625 118.49179688 -23.8203125 117.71484375 C-19.80294436 110.59530673 -14.82966694 104.03571439 -10.1015625 97.37890625 C5.01877045 76.05933065 15.95473622 55.97014485 12.3125 28.8125 C10.31125103 18.37241799 5.23664594 9.1416362 0 0 Z " fill="#FDA99E" transform="translate(301,93)"/>
<path d="M0 0 C0.33 0 0.66 0 1 0 C3.47546895 25.94658201 -14.0940896 48.46076969 -29.28613281 67.7277832 C-45.86747977 88.78028201 -59.58552178 111.93409169 -57.32226562 139.67041016 C-55.95864774 149.5277146 -51.51592645 158.55322691 -45 166 C-54.12478193 166.68866279 -62.87965853 163.82573393 -70 158 C-77.64126666 150.91415581 -81.03035394 143.13541333 -81.47094727 132.77270508 C-81.82763843 105.63719982 -62.39106474 85.29134063 -44.81054688 66.89892578 C-15.77993892 37.36885104 -15.77993892 37.36885104 0 0 Z " fill="#B56590" transform="translate(300,118)"/>
<path d="M0 0 C0.33 0 0.66 0 1 0 C1.06731323 1.14831299 1.06731323 1.14831299 1.13598633 2.31982422 C1.34926639 5.83907802 1.58075896 9.35691552 1.8125 12.875 C1.88275391 14.07898438 1.95300781 15.28296875 2.02539062 16.5234375 C2.90092756 30.14736373 2.90092756 30.14736373 9 42 C19.96990344 48.98641895 31.40698634 49.41284108 44 50 C44 50.33 44 50.66 44 51 C43.44650879 51.04487549 42.89301758 51.08975098 42.32275391 51.13598633 C23.96132822 51.9961304 23.96132822 51.9961304 8 60 C4.03835693 65.88460401 3.06140617 72.07918263 2.25 79 C2.12496094 79.96550781 1.99992187 80.93101562 1.87109375 81.92578125 C1.56774892 84.28253725 1.27770939 86.64011007 1 89 C-1.36725825 85.44911262 -1.46169467 82.55222343 -1.8125 78.4375 C-2.67308177 70.30275692 -4.57500163 63.7104149 -10.25 57.5625 C-18.56796804 52.8363818 -27.15554721 52.33697972 -36.5625 51.8125 C-37.85736328 51.73064453 -39.15222656 51.64878906 -40.48632812 51.56445312 C-43.65705513 51.36555143 -46.82802566 51.17769181 -50 51 C-50 50.67 -50 50.34 -50 50 C-49.30551758 49.95512451 -48.61103516 49.91024902 -47.89550781 49.86401367 C-44.67948013 49.64973635 -41.46485425 49.4186928 -38.25 49.1875 C-37.15816406 49.11724609 -36.06632813 49.04699219 -34.94140625 48.97460938 C-19.47792588 48.03562697 -19.47792588 48.03562697 -7 40 C0.24195818 29.33018162 -0.74996546 12.45337377 0 0 Z " fill="#151111" transform="translate(185,107)"/>
<path d="M0 0 C0.495 0.99 0.495 0.99 1 2 C-0.03761883 4.2922754 -1.12274251 6.47597786 -2.3125 8.6875 C-6.78453863 17.03112317 -9.9302684 25.58225429 -7.453125 35.1015625 C-3.45200417 44.57591465 6.55499148 50.79836432 15 56 C14.01 56.495 14.01 56.495 13 57 C10.66185675 55.96576427 8.44132884 54.88260719 6.1875 53.6875 C-2.52598658 49.14410417 -8.99405995 46.6690436 -19 48 C-28.38383032 51.8324352 -34.44977457 60.92694483 -40 69 C-40.495 68.01 -40.495 68.01 -41 67 C-39.94682582 64.29646069 -38.8374139 61.69325306 -37.625 59.0625 C-36.97033166 57.61634787 -36.3166473 56.16974979 -35.6640625 54.72265625 C-35.36967285 54.08078369 -35.0752832 53.43891113 -34.77197266 52.77758789 C-32.49818247 47.54183004 -32.24429709 42.62242969 -33 37 C-37.34422978 26.03260023 -49.43631682 19.0215783 -59 13 C-58.34 12.67 -57.68 12.34 -57 12 C-55.30761719 12.6809082 -55.30761719 12.6809082 -53.296875 13.80078125 C-52.56339844 14.20103516 -51.82992187 14.60128906 -51.07421875 15.01367188 C-50.30722656 15.44228516 -49.54023438 15.87089844 -48.75 16.3125 C-40.06305541 21.13278572 -33.12385625 23.96850045 -23 23 C-14.90075413 20.09649676 -9.91961289 13.99506857 -5.125 7.1875 C-4.62742188 6.49462891 -4.12984375 5.80175781 -3.6171875 5.08789062 C-2.40439164 3.39697331 -1.20118492 1.69918508 0 0 Z " fill="#151111" transform="translate(188,257)"/>
<path d="M0 0 C0.33 0 0.66 0 1 0 C1.08636719 1.2065625 1.17273438 2.413125 1.26171875 3.65625 C1.891813 15.87106458 1.891813 15.87106458 8 26 C14.13427862 30.95962953 21.33869698 31.19242853 29 32 C29 32.33 29 32.66 29 33 C28.154375 33.08636719 27.30875 33.17273438 26.4375 33.26171875 C17.66015398 34.34891275 11.7656035 36.03620684 5.625 42.5 C2.68504127 47.02301343 1.72868641 50.94825619 1.375 56.3125 C1.30023438 57.38113281 1.22546875 58.44976562 1.1484375 59.55078125 C1.09945313 60.35902344 1.05046875 61.16726563 1 62 C0.67 62 0.34 62 0 62 C-0.02578125 61.31035156 -0.0515625 60.62070312 -0.078125 59.91015625 C-0.51154871 52.72911343 -1.43584987 45.90814318 -6.45703125 40.40234375 C-11.47970831 36.04087987 -15.72356922 34.7210188 -22.25 33.875 C-23.51328125 33.70742188 -24.7765625 33.53984375 -26.078125 33.3671875 C-27.52445313 33.18542969 -27.52445313 33.18542969 -29 33 C-29 32.67 -29 32.34 -29 32 C-27.87464844 31.97873047 -27.87464844 31.97873047 -26.7265625 31.95703125 C-19.21778658 31.60712607 -13.2204532 30.38259202 -7 26 C-2.07460809 20.21266451 -0.79673108 14.07558241 -0.375 6.625 C-0.30023438 5.37976563 -0.22546875 4.13453125 -0.1484375 2.8515625 C-0.09945313 1.91054688 -0.05046875 0.96953125 0 0 Z " fill="#282124" transform="translate(263,312)"/>
<path d="M0 0 C0.33 0.66 0.66 1.32 1 2 C0.525625 2.680625 0.05125 3.36125 -0.4375 4.0625 C-2.57093114 8.07335055 -2.88336421 11.54265764 -2 16 C0.18802581 18.93854074 0.18802581 18.93854074 3 21 C4 22 5 23 6 24 C5.195625 23.67 4.39125 23.34 3.5625 23 C-0.72482002 21.79654175 -4.58604881 21.16933022 -9 22 C-11.96050874 24.29199403 -11.96050874 24.29199403 -14 27 C-14.66 27.33 -15.32 27.66 -16 28 C-15.835 27.360625 -15.67 26.72125 -15.5 26.0625 C-14.45336792 20.03407476 -14.45336792 20.03407476 -15 14 C-17.02871203 11.51482776 -19.31973504 9.74353971 -22 8 C-21.34 7.67 -20.68 7.34 -20 7 C-19.195625 7.4640625 -19.195625 7.4640625 -18.375 7.9375 C-14.93439527 9.47671791 -11.66128116 9.72204549 -8 9 C-4.75191432 6.40153146 -2.38653852 3.39139685 0 0 Z " fill="#20171A" transform="translate(161,223)"/>
<path d="M0 0 C0.66 0 1.32 0 2 0 C2.10957031 0.61488281 2.21914062 1.22976562 2.33203125 1.86328125 C2.49058594 2.67152344 2.64914063 3.47976562 2.8125 4.3125 C2.96332031 5.11300781 3.11414063 5.91351563 3.26953125 6.73828125 C4.10345786 9.3203321 4.84935782 10.36710501 7 12 C9.03341887 12.77813652 9.03341887 12.77813652 11.1875 13.1875 C12.445625 13.455625 13.70375 13.72375 15 14 C12.63716998 15.18141501 10.27592754 16.33307333 7.875 17.4375 C3.31504969 19.91573387 2.47580774 23.25633227 1 28 C0.67 28 0.34 28 0 28 C-0.226875 26.741875 -0.45375 25.48375 -0.6875 24.1875 C-1.43214492 21.33470495 -1.77791616 20.21491985 -3.9375 18.125 C-8.51012638 16.4452597 -13.19301695 15.71557541 -18 15 C-18 14.67 -18 14.34 -18 14 C-16.87851563 13.92652344 -16.87851563 13.92652344 -15.734375 13.8515625 C-14.25710937 13.73941406 -14.25710937 13.73941406 -12.75 13.625 C-11.77546875 13.55539063 -10.8009375 13.48578125 -9.796875 13.4140625 C-7.0677521 13.01003034 -5.30899779 12.48322865 -3 11 C-1.13966738 7.47515924 -0.54754959 3.92410537 0 0 Z " fill="#1B1416" transform="translate(223,102)"/>
<path d="M0 0 C0.66 0 1.32 0 2 0 C2.8971875 1.423125 2.8971875 1.423125 3.8125 2.875 C6.10464788 6.14949697 7.24180292 6.95605637 11 8 C10 10 10 10 7.625 11.3125 C4.67109615 13.21143819 3.70586459 14.99442906 2 18 C1.34 18 0.68 18 0 18 C-0.598125 17.071875 -1.19625 16.14375 -1.8125 15.1875 C-4.00696913 11.98984498 -5.58693721 10.70653139 -9 9 C-7 7 -7 7 -4.5 5.625 C-1.87551256 3.91908316 -1.08940462 2.87206672 0 0 Z " fill="#282123" transform="translate(310,357)"/>
<path d="M0 0 C1 2 1 2 0.9375 5.4375 C0.681137 9.10672687 0.681137 9.10672687 3 12 C1.4221875 11.87625 1.4221875 11.87625 -0.1875 11.75 C-4.53763669 12.03525487 -5.9315153 13.02449969 -9 16 C-8.731875 14.80375 -8.46375 13.6075 -8.1875 12.375 C-7.83259992 9.75060729 -7.73932865 8.46492875 -9.046875 6.1328125 C-10.5685106 4.29537234 -10.5685106 4.29537234 -13 2 C-11.96939453 2.16048828 -11.96939453 2.16048828 -10.91796875 2.32421875 C-9.56638672 2.50404297 -9.56638672 2.50404297 -8.1875 2.6875 C-7.29417969 2.81511719 -6.40085938 2.94273437 -5.48046875 3.07421875 C-2.92975791 3.24891882 -2.92975791 3.24891882 -1.17578125 1.51953125 C-0.78777344 1.01808594 -0.39976562 0.51664062 0 0 Z " fill="#271B1F" transform="translate(167,341)"/>
<path d="M0 0 C0.66 0 1.32 0 2 0 C2.12375 0.928125 2.12375 0.928125 2.25 1.875 C2.81258459 4.18437567 2.81258459 4.18437567 5.0625 5.25 C5.701875 5.4975 6.34125 5.745 7 6 C7 6.66 7 7.32 7 8 C6.38125 8.165 5.7625 8.33 5.125 8.5 C1.72243051 10.90181375 1.77387974 14.00162134 1 18 C0.67 18 0.34 18 0 18 C-0.12375 16.88625 -0.2475 15.7725 -0.375 14.625 C-0.6465813 10.96896323 -0.6465813 10.96896323 -3 9 C-5.06874034 8.3574765 -5.06874034 8.3574765 -7 8 C-7 7.34 -7 6.68 -7 6 C-6.21625 5.7525 -5.4325 5.505 -4.625 5.25 C-1.67682892 3.84610901 -1.0975223 2.99324263 0 0 Z " fill="#21171A" transform="translate(134,176)"/>
<path d="M0 0 C2.71755478 4.07633217 4.44246293 8.52542861 6.34570312 13.01953125 C7.68138412 16.13129131 8.99689427 18.99498462 10.78515625 21.8828125 C11.18605469 22.58148438 11.58695312 23.28015625 12 24 C11.67 24.66 11.34 25.32 11 26 C7.50168976 21.95680623 5.07914506 17.73956718 2.6875 13 C2.31560547 12.30132812 1.94371094 11.60265625 1.56054688 10.8828125 C-1.06322124 5.70367991 -1.06322124 5.70367991 -0.73046875 2 C-0.48941406 1.34 -0.24835938 0.68 0 0 Z " fill="#F29E9C" transform="translate(366,354)"/>
<path d="M0 0 C0.66 0 1.32 0 2 0 C2.61875 0.9590625 2.61875 0.9590625 3.25 1.9375 C5.59697894 4.70358232 7.48008781 4.68711892 11 5 C11 5.33 11 5.66 11 6 C9.906875 6.0825 8.81375 6.165 7.6875 6.25 C3.96723336 6.63689209 3.96723336 6.63689209 2.0625 9.0625 C1.711875 9.701875 1.36125 10.34125 1 11 C0.608125 10.360625 0.21625 9.72125 -0.1875 9.0625 C-2.38472296 6.56221181 -3.75791433 6.35049575 -7 6 C-4 4 -4 4 -1 3 C-0.67 2.01 -0.34 1.02 0 0 Z " fill="#34272D" transform="translate(294,315)"/>
<path d="M0 0 C3.71052632 4.94736842 3.71052632 4.94736842 4 9 C3.25 12.25 3.25 12.25 2 15 C1.01 15.33 0.02 15.66 -1 16 C-0.67 10.72 -0.34 5.44 0 0 Z " fill="#E7949A" transform="translate(298,108)"/>
<path d="M0 0 C0.33 0 0.66 0 1 0 C1.33 7.26 1.66 14.52 2 22 C1.01 22 0.02 22 -1 22 C-0.67 14.74 -0.34 7.48 0 0 Z " fill="#39242E" transform="translate(185,107)"/>
</svg>
